<?xml version="1.0" encoding="UTF-8" standalone="no"?>
<!-- Created with Inkscape (http://www.inkscape.org/) -->

<svg
   width="744.09448819"
   height="1052.3622047">
    <path
       style="fill:#000000"
       d="m 264.56554,444.15422 c -1.91219,-1.5484 -2.51136,-4.27566 -4.94284,-22.49873 -1.52179,-11.4052 -3.01699,-20.98685 -3.32268,-21.29253 -0.5388,-0.5388 -1.33654,3.56253 -3.86158,19.85301 -1.47204,9.49701 -3.61364,12.70023 -8.49109,12.70023 -5.04926,0 -7.01271,-2.59429 -8.43211,-11.14132 -0.67213,-4.04727 -1.95854,-11.63368 -2.85868,-16.85868 l -1.63663,-9.5 -9.5,-0.2489 c -13.31147,-0.34877 -14,-0.5781 -14,-4.66316 0,-3.72443 1.21028,-4.58794 6.43032,-4.58794 l 3.26675,0 3.34801,-19.615 c 3.6201,-21.20914 4.89708,-24.385 9.80499,-24.385 6.3742,0 7.73058,2.6689 10.67255,21 0.92683,5.775 2.00599,10.84509 2.39813,11.26686 0.39213,0.42177 1.93534,-7.22823 3.42934,-17 2.97605,-19.46537 3.92979,-21.60019 9.64991,-21.60019 6.54031,0 7.18507,1.83703 11.08509,31.58333 1.20784,9.2125 2.50621,16.75 2.88526,16.75 0.37904,0 1.52438,-5.4456 2.54519,-12.10132 2.12726,-13.86979 3.71938,-16.89868 8.88273,-16.89868 5.24239,0 7.09568,3.00543 10.67473,17.31094 3.51822,14.0624 3.70152,14.18304 6.85958,4.51474 2.45977,-7.53048 3.90139,-9.15901 8.1078,-9.15901 3.44811,0 6.4686,2.46936 8.9596,7.32482 l 1.79231,3.49359 1.05043,-3.99254 c 0.57773,-2.1959 2.4424,-9.61754 4.14372,-16.49254 3.31076,-13.37876 4.94084,-16 9.95003,-16 5.25204,0 6.87429,3.29895 9.76825,19.86438 1.45848,8.34852 2.95959,14.83183 3.33581,14.40737 0.37622,-0.42446 1.71411,-7.21015 2.9731,-15.0793 2.51332,-15.70919 4.11706,-19.19245 8.83644,-19.19245 6.71993,0 7.7196,2.272 11.21129,25.48041 2.58607,17.18899 2.91691,17.07748 5.87595,-1.98041 1.76945,-11.3963 2.33646,-13.27756 4.59633,-15.25 6.57047,-5.73476 10.41928,-1.72903 15.6134,16.25 4.93049,17.06648 4.53638,16.43016 7.48685,12.08814 4.54663,-6.69096 9.14438,-6.19604 15.34581,1.6519 4.01819,5.08504 4.92776,5.72266 8.18851,5.74021 5.61893,0.0302 6.83179,0.83265 6.83179,4.51975 0,4.19906 -0.87273,4.5 -13.05024,4.5 l -9.88667,0 -4.10297,5.55398 c -7.85928,10.63871 -12.92583,9.80292 -17.91993,-2.95611 -1.85532,-4.74002 -2.75612,-2.1345 -6.0164,17.40213 -3.24498,19.44496 -4.48492,22.70078 -9.29844,24.41579 -3.64289,1.29792 -7.39065,-1.39105 -8.58987,-6.16312 -0.51867,-2.06397 -1.94391,-10.40761 -3.16718,-18.54142 -1.22327,-8.13381 -2.45981,-14.55308 -2.74785,-14.26503 -0.28805,0.28805 -1.56168,6.66896 -2.83029,14.17981 -2.5925,15.34899 -4.22394,18.37397 -9.90949,18.37397 -5.42139,0 -6.51714,-2.35637 -9.58839,-20.61959 -1.53681,-9.13861 -3.02185,-16.84332 -3.30011,-17.12157 -1.30296,-1.30296 -3.59032,1.02057 -4.56387,4.63604 -2.76491,10.26811 -11.90103,10.36657 -16.49554,0.17778 -2.51675,-5.58116 -2.97834,-5.26357 -6.07148,4.17734 -1.48663,4.5375 -3.35515,9.67098 -4.15228,11.40774 -3.31204,7.21617 -12.23689,6.17536 -14.27225,-1.66442 -0.57021,-2.19632 -1.51633,-5.83874 -2.10247,-8.09426 -1.5393,-5.92325 -1.86318,-4.96678 -5.4675,16.14644 -2.69558,15.79005 -3.65721,19.52831 -5.53867,21.53102 -2.7026,2.87678 -6.80742,3.15155 -9.8825,0.6615 z"/>
</svg>
