<svg version="1.1" xmlns="http://www.w3.org/2000/svg">
  <path
     style="fill:#000000"
     d="m 257.00115,496.07524 c 2.33538,-5.72178 3.81254,-7.50438 8.00791,-9.66377 8.65986,-4.45731 18.38646,-2.08327 23.81984,5.81389 l 3.01315,4.37946 29.69179,-0.26479 29.69178,-0.26479 0.5,-6 0.5,-6 17.5,0 17.5,0 0.30697,4.80324 c 0.40921,6.40316 1.40861,6.60555 13.33308,2.70006 28.10702,-9.20558 49.38826,-31.43746 56.35956,-58.87714 2.06493,-8.12776 1.69806,-8.94249 -4.19636,-9.31919 l -4.80325,-0.30697 0,-17.5 0,-17.5 17.5,0 17.5,0 0,17.5 0,17.5 -6.39767,0.5 c -7.36212,0.57537 -7.27105,0.47153 -9.64708,11 -5.14695,22.80668 -18.40287,42.87717 -36.26307,54.90507 -8.52012,5.73785 -7.87431,6.53532 5.56918,6.87703 l 11.09839,0.28209 3.02506,-4.39677 c 10.02364,-14.56886 32.61519,-8.10446 32.61519,9.33258 0,17.42416 -22.59071,23.90266 -32.60328,9.34988 l -3.01315,-4.37946 -29.69179,0.26479 -29.69178,0.26479 -0.5,6 -0.5,6 -17.5,0 -17.5,0 -0.30697,-4.80324 c -0.40921,-6.40316 -1.40861,-6.60555 -13.33308,-2.70006 -28.10702,9.20558 -49.38826,31.43746 -56.35956,58.87714 -2.06493,8.12776 -1.69806,8.94249 4.19637,9.31919 l 4.80324,0.30697 0,17.5 0,17.5 -17.5,0 -17.5,0 0,-17.5 0,-17.5 6.39767,-0.5 c 7.31198,-0.57146 7.11661,-0.34774 9.60654,-11 5.38994,-23.05889 19.12516,-43.72068 36.79944,-55.35711 7.99115,-5.26123 7.21114,-6.08754 -6.06501,-6.42499 l -11.09839,-0.28209 -3.02506,4.39677 c -11.53425,16.76445 -39.43176,3.76833 -31.83966,-14.83258 z"
     id="path11387" />
</svg>
