<svg version="1.1" xmlns="http://www.w3.org/2000/svg"><path d="M257.001 496.075c2.336-5.722 3.813-7.504 8.008-9.664 8.66-4.457 18.387-2.083 23.82 5.814l3.013 4.38 29.692-.265 29.692-.265.5-6 .5-6h35l.307 4.803c.409 6.404 1.408 6.606 13.333 2.7 28.107-9.205 49.388-31.437 56.36-58.877 2.064-8.127 1.697-8.942-4.197-9.319l-4.803-.307v-35h35v35l-6.398.5c-7.362.576-7.271.472-9.647 11-5.147 22.807-18.403 42.877-36.263 54.905-8.52 5.738-7.875 6.536 5.569 6.877l11.098.282 3.025-4.396c10.024-14.57 32.616-8.105 32.616 9.332 0 17.424-22.591 23.903-32.604 9.35l-3.013-4.38-29.692.265-29.691.265-.5 6-.5 6h-35l-.307-4.803c-.41-6.403-1.409-6.606-13.333-2.7-28.107 9.206-49.389 31.437-56.36 58.877-2.065 8.128-1.698 8.943 4.196 9.32l4.804.306v35h-35v-35l6.397-.5c7.312-.571 7.117-.347 9.607-11 5.39-23.059 19.125-43.72 36.8-55.357 7.99-5.261 7.21-6.087-6.066-6.425l-11.098-.282-3.025 4.397c-11.534 16.764-39.432 3.768-31.84-14.833z" fill="#000"/></svg>