<?xml version="1.0" encoding="UTF-8" standalone="no"?>
<!-- Created with Inkscape (http://www.inkscape.org/) -->

<svg
   xmlns:dc="http://purl.org/dc/elements/1.1/"
   xmlns:cc="http://creativecommons.org/ns#"
   xmlns:rdf="http://www.w3.org/1999/02/22-rdf-syntax-ns#"
   xmlns:svg="http://www.w3.org/2000/svg"
   xmlns="http://www.w3.org/2000/svg"
   xmlns:sodipodi="http://sodipodi.sourceforge.net/DTD/sodipodi-0.dtd"
   xmlns:inkscape="http://www.inkscape.org/namespaces/inkscape"
   width="744.09448819"
   height="1052.3622047"
   id="svg2"
   version="1.1"
   inkscape:version="0.48.2 r9819"
   sodipodi:docname="beamed_note.svg">
  <defs
     id="defs4" />
  <sodipodi:namedview
     id="base"
     pagecolor="#ffffff"
     bordercolor="#666666"
     borderopacity="1.0"
     inkscape:pageopacity="0.0"
     inkscape:pageshadow="2"
     inkscape:zoom="0.49497475"
     inkscape:cx="475.15743"
     inkscape:cy="455.79619"
     inkscape:document-units="px"
     inkscape:current-layer="layer1"
     showgrid="false"
     inkscape:window-width="832"
     inkscape:window-height="566"
     inkscape:window-x="0"
     inkscape:window-y="0"
     inkscape:window-maximized="0" />
  <metadata
     id="metadata7">
    <rdf:RDF>
      <cc:Work
         rdf:about="">
        <dc:format>image/svg+xml</dc:format>
        <dc:type
           rdf:resource="http://purl.org/dc/dcmitype/StillImage" />
        <dc:title></dc:title>
      </cc:Work>
    </rdf:RDF>
  </metadata>
  <g
     inkscape:label="Layer 1"
     inkscape:groupmode="layer"
     id="layer1">
    <path
       style="fill:#000000"
       d="M 258.15625 357.4375 C 253.56295 357.72256 233.62651 361.41275 196.15625 368.90625 L 133.59375 381.4375 L 133.59375 440.3125 C 133.59375 506.47697 134.29593 501.33087 125.5 498.71875 C 73.956586 483.41201 36.91805 552.59262 87.4375 569.8125 C 107.90516 576.78903 134.33983 567.28243 145.28125 549 C 151.4688 538.66099 151.59375 537.45801 151.59375 476.90625 L 151.59375 422.09375 L 153.84375 421.15625 C 156.64136 419.98204 236.25334 404.123 239.34375 404.125 L 241.59375 404.125 L 241.59375 442.625 C 241.59375 472.76411 241.32229 481.133 240.34375 481.125 C 239.65625 481.11904 236.84375 480.39584 234.09375 479.53125 C 204.72818 470.29891 169.3644 494.62514 171.875 522.3125 C 175.34429 560.57243 237.51122 563.48455 255.84375 526.25 L 259.09375 519.6875 L 259.34375 439.1875 C 259.49092 394.90989 259.42684 358.15496 259.1875 357.53125 C 259.15028 357.43425 258.81244 357.39678 258.15625 357.4375 z M 292.8125 541.28125 L 292.8125 541.4375 L 293.09375 541.4375 L 293.09375 541.28125 L 292.8125 541.28125 z "
       id="path3038" />
  </g>
</svg>
