<?xml version="1.0" encoding="UTF-8" standalone="no"?>
<!-- Created with Inkscape (http://www.inkscape.org/) -->

<svg
   xmlns:dc="http://purl.org/dc/elements/1.1/"
   xmlns:cc="http://creativecommons.org/ns#"
   xmlns:rdf="http://www.w3.org/1999/02/22-rdf-syntax-ns#"
   xmlns:svg="http://www.w3.org/2000/svg"
   xmlns="http://www.w3.org/2000/svg"
   xmlns:sodipodi="http://sodipodi.sourceforge.net/DTD/sodipodi-0.dtd"
   xmlns:inkscape="http://www.inkscape.org/namespaces/inkscape"
   width="744.09448819"
   height="1052.3622047"
   id="svg2"
   version="1.1"
   inkscape:version="0.48.2 r9819"
   sodipodi:docname="reroute.svg">
  <defs
     id="defs4" />
  <sodipodi:namedview
     id="base"
     pagecolor="#ffffff"
     bordercolor="#666666"
     borderopacity="1.0"
     inkscape:pageopacity="0.0"
     inkscape:pageshadow="2"
     inkscape:zoom="1.4"
     inkscape:cx="404.27528"
     inkscape:cy="561.78017"
     inkscape:document-units="px"
     inkscape:current-layer="layer1"
     showgrid="false"
     inkscape:window-width="800"
     inkscape:window-height="661"
     inkscape:window-x="0"
     inkscape:window-y="0"
     inkscape:window-maximized="0" />
  <metadata
     id="metadata7">
    <rdf:RDF>
      <cc:Work
         rdf:about="">
        <dc:format>image/svg+xml</dc:format>
        <dc:type
           rdf:resource="http://purl.org/dc/dcmitype/StillImage" />
        <dc:title></dc:title>
      </cc:Work>
    </rdf:RDF>
  </metadata>
  <g
     inkscape:label="Layer 1"
     inkscape:groupmode="layer"
     id="layer1">
    <path
       style="fill:#000000"
       d="m 257.00115,496.07524 c 2.33538,-5.72178 3.81254,-7.50438 8.00791,-9.66377 8.65986,-4.45731 18.38646,-2.08327 23.81984,5.81389 l 3.01315,4.37946 29.69179,-0.26479 29.69178,-0.26479 0.5,-6 0.5,-6 17.5,0 17.5,0 0.30697,4.80324 c 0.40921,6.40316 1.40861,6.60555 13.33308,2.70006 28.10702,-9.20558 49.38826,-31.43746 56.35956,-58.87714 2.06493,-8.12776 1.69806,-8.94249 -4.19636,-9.31919 l -4.80325,-0.30697 0,-17.5 0,-17.5 17.5,0 17.5,0 0,17.5 0,17.5 -6.39767,0.5 c -7.36212,0.57537 -7.27105,0.47153 -9.64708,11 -5.14695,22.80668 -18.40287,42.87717 -36.26307,54.90507 -8.52012,5.73785 -7.87431,6.53532 5.56918,6.87703 l 11.09839,0.28209 3.02506,-4.39677 c 10.02364,-14.56886 32.61519,-8.10446 32.61519,9.33258 0,17.42416 -22.59071,23.90266 -32.60328,9.34988 l -3.01315,-4.37946 -29.69179,0.26479 -29.69178,0.26479 -0.5,6 -0.5,6 -17.5,0 -17.5,0 -0.30697,-4.80324 c -0.40921,-6.40316 -1.40861,-6.60555 -13.33308,-2.70006 -28.10702,9.20558 -49.38826,31.43746 -56.35956,58.87714 -2.06493,8.12776 -1.69806,8.94249 4.19637,9.31919 l 4.80324,0.30697 0,17.5 0,17.5 -17.5,0 -17.5,0 0,-17.5 0,-17.5 6.39767,-0.5 c 7.31198,-0.57146 7.11661,-0.34774 9.60654,-11 5.38994,-23.05889 19.12516,-43.72068 36.79944,-55.35711 7.99115,-5.26123 7.21114,-6.08754 -6.06501,-6.42499 l -11.09839,-0.28209 -3.02506,4.39677 c -11.53425,16.76445 -39.43176,3.76833 -31.83966,-14.83258 z"
       id="path11387"
       inkscape:connector-curvature="0" />
  </g>
</svg>
