<svg version="1.1" xmlns="http://www.w3.org/2000/svg" width="32" height="32" viewBox="0 0 32 32"><path d="M26.948 3.538c-5.362.106-11.574 1.035-16.937 2.788-.003-.035.02 15.928.02 15.928-.968-.219-2.062-.092-3.211.432-2.132.969-3.295 2.928-2.597 4.375.698 1.449 2.992 1.838 5.124.867 1.949-1.045 2.576-1.99 2.64-3.357l.048-13.832a57.427 57.427 0 0 1 12.923-2.208v12.366c-.979-.24-2.276-.119-3.451.414-2.132.971-3.295 2.93-2.597 4.377.698 1.449 2.992 1.836 5.125.867 1.516-.689 2.729-1.879 2.943-3.029.001-.001-.051-20.015-.03-19.988z"/></svg>