<svg xmlns="http://www.w3.org/2000/svg" width="24" height="24"><path d="M5.672 19.734l1.406-1.406a8.36 8.36 0 0 0 3.938 1.594v2.016a9.9 9.9 0 0 1-5.344-2.203zm7.312.188c1.453-.188 2.813-.75 3.89-1.594l1.453 1.406c-1.5 1.22-3.328 2.016-5.344 2.203V19.92zm5.344-3c.844-1.125 1.406-2.438 1.594-3.89h2.016c-.188 2.016-.984 3.797-2.203 5.297zM15 12c0 1.64-1.36 3-3 3s-3-1.36-3-3 1.36-3 3-3 3 1.36 3 3zm-10.922.984c.188 1.453.75 2.813 1.594 3.89l-1.406 1.453c-1.22-1.5-2.016-3.328-2.203-5.344H4.08zm1.594-5.906a8.36 8.36 0 0 0-1.594 3.938H2.062a9.9 9.9 0 0 1 2.203-5.344zm14.25 3.938c-.188-1.453-.75-2.813-1.594-3.938l1.406-1.406c1.22 1.5 2.016 3.328 2.203 5.344H19.92zm-1.594-6.75l-1.406 1.406a8.36 8.36 0 0 0-3.938-1.594V2.062a9.9 9.9 0 0 1 5.344 2.203zm-7.312-.188c-1.453.188-2.813.75-3.938 1.594L5.672 4.266C7.172 3.047 9 2.25 11.016 2.063V4.08z"/></svg>