<svg version="1.1" xmlns="http://www.w3.org/2000/svg" width="32" height="32" viewBox="0 0 32 32">
<path d="M26.948 3.538c-5.362 0.106-11.574 1.035-16.937 2.788-0.003-0.035 0.020 15.928 0.020 15.928-0.968-0.219-2.062-0.092-3.211 0.432-2.132 0.969-3.295 2.928-2.597 4.375 0.698 1.449 2.992 1.838 5.124 0.867 1.949-1.045 2.576-1.99 2.64-3.357l0.048-13.832c4.226-1.243 8.695-1.98 12.923-2.208v12.366c-0.979-0.24-2.276-0.119-3.451 0.414-2.132 0.971-3.295 2.93-2.597 4.377 0.698 1.449 2.992 1.836 5.125 0.867 1.516-0.689 2.729-1.879 2.943-3.029 0.001-0.001-0.051-20.015-0.030-19.988z"></path>
</svg>
