<?xml version="1.0" encoding="UTF-8" standalone="no"?>
<!-- Created with Inkscape (http://www.inkscape.org/) -->

<svg
   xmlns:dc="http://purl.org/dc/elements/1.1/"
   xmlns:cc="http://creativecommons.org/ns#"
   xmlns:rdf="http://www.w3.org/1999/02/22-rdf-syntax-ns#"
   xmlns:svg="http://www.w3.org/2000/svg"
   xmlns="http://www.w3.org/2000/svg"
   xmlns:sodipodi="http://sodipodi.sourceforge.net/DTD/sodipodi-0.dtd"
   xmlns:inkscape="http://www.inkscape.org/namespaces/inkscape"
   width="744.09448819"
   height="1052.3622047"
   id="svg2"
   version="1.1"
   inkscape:version="0.48.2 r9819"
   sodipodi:docname="saxophone.svg">
  <defs
     id="defs4" />
  <sodipodi:namedview
     id="base"
     pagecolor="#ffffff"
     bordercolor="#666666"
     borderopacity="1.0"
     inkscape:pageopacity="0.0"
     inkscape:pageshadow="2"
     inkscape:zoom="1.4"
     inkscape:cx="315.04952"
     inkscape:cy="532.47967"
     inkscape:document-units="px"
     inkscape:current-layer="layer1"
     showgrid="false"
     inkscape:window-width="617"
     inkscape:window-height="688"
     inkscape:window-x="0"
     inkscape:window-y="0"
     inkscape:window-maximized="0"
     showguides="true"
     inkscape:guide-bbox="true" />
  <metadata
     id="metadata7">
    <rdf:RDF>
      <cc:Work
         rdf:about="">
        <dc:format>image/svg+xml</dc:format>
        <dc:type
           rdf:resource="http://purl.org/dc/dcmitype/StillImage" />
        <dc:title></dc:title>
      </cc:Work>
    </rdf:RDF>
  </metadata>
  <g
     inkscape:label="Layer 1"
     inkscape:groupmode="layer"
     id="layer1">
    <path
       style="fill:#000000"
       d="m 282.57141,616.8455 c -17.31206,-4.76603 -24.44309,-15.54073 -24.57125,-37.12616 l -0.0712,-12 -6.20249,-0.77292 c -13.21891,-1.64726 -23.83391,-8.18572 -28.57913,-17.60373 -8.55813,-16.98561 -2.55413,-42.6283 12.58267,-53.73974 4.05948,-2.97992 4.87642,-4.06638 4.34386,-5.77689 -5.21741,-16.75779 0.98502,-39.44665 14.38105,-52.60672 26.38576,-25.92101 71.61362,-18.39135 87.09609,14.5 1.81225,3.85 3.44888,7.17815 3.63695,7.39589 0.18807,0.21774 3.16379,-0.90025 6.61272,-2.48442 23.9411,-10.99666 50.84724,10.74357 44.04506,35.58853 -1.14949,4.1985 -0.68506,5.99239 1.55905,6.02196 6.00052,0.0791 15.23718,7.68647 17.46795,14.38676 l 1.36214,4.09128 6.88161,0.7689 c 18.29869,2.04455 24.90814,7.70804 24.70403,21.1683 -0.26472,17.45644 -10.2645,28.5628 -25.71694,28.5628 -8.68728,0 -9.47645,1.07581 -3.0166,4.1123 16.00912,7.52517 10.2154,37.56549 -8.81257,45.69298 -4.06115,1.73466 -121.34895,1.57014 -127.70295,-0.17912 z m 128.67764,-12.19724 c 4.38885,-3.2206 6.52707,-8.1193 5.93733,-13.60257 -0.96389,-8.96218 -2.50743,-10.02784 -15.61497,-10.7807 -9.21163,-0.52909 -9.50961,-0.62154 -9.81652,-3.04565 -1.68649,-13.32075 -8.48889,-19.68919 -23.74981,-22.23472 l -7.76437,-1.29509 -1.28904,-6.31942 c -7.05405,-34.58173 -59.33705,-33.11068 -63.96809,1.79982 l -0.64129,4.83428 -5.77483,1.13612 c -25.96677,5.10866 -26.10005,43.61491 -0.1755,50.70353 9.0523,2.47519 119.31704,1.40213 122.85709,-1.1956 z"
       id="path9266"
       inkscape:connector-curvature="0" />
  </g>
</svg>
