<svg version="1.1" xmlns="http://www.w3.org/2000/svg" xmlns:xlink="http://www.w3.org/1999/xlink" width="32" height="32" viewBox="0 0 32 32">
	<path d="M4.421 21.699c-2.422 2.381-0.376 4.826-3.595 8.45-1.453 1.635 5.981 1.136 9.664-2.485 1.562-1.534 1.122-3.773-0.554-5.421-1.675-1.646-3.954-2.078-5.515-0.544zM31.266 1.053c-1.243-1.221-15.006 9.808-19.104 13.835-2.034 1.998-2.712 3.070-3.336 3.872-0.27 0.349 0.088 0.456 0.248 0.539 0.805 0.41 1.368 0.79 2.098 1.507 0.73 0.715 1.118 1.269 1.534 2.061 0.083 0.158 0.194 0.51 0.547 0.243 0.816-0.613 1.906-1.28 3.938-3.278 4.098-4.027 15.315-17.557 14.075-18.779z" fill="#000000"></path>
</svg>
