<svg version="1.1" xmlns="http://www.w3.org/2000/svg" width="32" height="32" viewBox="0 0 32 32"><path d="M4.421 21.699c-2.422 2.381-.376 4.826-3.595 8.45-1.453 1.635 5.981 1.136 9.664-2.485 1.562-1.534 1.122-3.773-.554-5.421-1.675-1.646-3.954-2.078-5.515-.544zM31.266 1.053C30.023-.168 16.26 10.861 12.162 14.888c-2.034 1.998-2.712 3.07-3.336 3.872-.27.349.088.456.248.539.805.41 1.368.79 2.098 1.507.73.715 1.118 1.269 1.534 2.061.083.158.194.51.547.243.816-.613 1.906-1.28 3.938-3.278 4.098-4.027 15.315-17.557 14.075-18.779z" fill="#000"/></svg>