<svg version="1.1" xmlns="http://www.w3.org/2000/svg"><path d="M270.173 564.99c-8.345-3.789-7.816 2.582-7.816-94.056 0-110.602-13.055-95.949 85.512-95.978l73.51-.022 16.264 16.286 16.264 16.286-.275 74.464c-.31 84.155.165 79.272-8.091 83.02-6.507 2.955-168.86 2.955-175.368 0zm145.68-40.806c-.005-44.997 6.04-40.75-57.996-40.75-64.035 0-57.99-4.247-57.996 40.75l-.004 30.75h116l-.004-30.75zm-11.447-75.25c5.141-4.746 5.451-6.761 5.451-35.468v-26.532h-104v26.435c0 30.439.9 34.422 8.5 37.627 5.671 2.391 87.248.523 90.05-2.062zm-33.549-29v-25h25v50h-25v-25z" fill="#000"/></svg>