<svg version="1.1" xmlns="http://www.w3.org/2000/svg"><path d="M189.32 702.976c-.263-.691-.362-44.682-.22-97.757l.257-96.5 45-.295c47.02-.309 51.807.035 52.79 3.795.804 3.076-3.747 11.119-10.4 18.38-3.905 4.26-5.92 7.269-5.712 8.525.204 1.228 12.09 10.475 32.322 25.147 17.6 12.764 33.016 24.13 34.258 25.26l2.259 2.052-.259 56.068-.258 56.068-74.779.257c-59.293.203-74.878-.004-75.258-1zm160.217-31.41c-.374-.374-.68-21.897-.68-47.83v-47.149l-8.074-13.81c-13.688-23.411-33.942-55.922-36.548-58.664-3.704-3.898-8.645-4.894-24.277-4.894h-14.166l.282-11.25.283-11.25h47.097c38.45 0 47.4.252 48.75 1.373 3.906 3.243.827 10.203-9.697 21.915-3.107 3.458-5.65 6.68-5.65 7.16 0 .48 14.738 11.558 32.75 24.618 18.013 13.06 33.766 24.658 35.008 25.772l2.259 2.026-.259 56.068-.258 56.068-33.07.264c-18.188.144-33.376-.043-33.75-.417zm-38.18-115.922c-27.578-20.714-25.178-18.016-20.836-23.43 1.983-2.472 4.722-6.9 6.088-9.841 2.984-6.425 2.097-7.14 13.453 10.846a9403.343 9403.343 0 0 0 16.644 26.25c4.467 7.013 7.79 12.74 7.386 12.725-.404-.013-10.635-7.46-22.735-16.55zm76.262-32.36c-25.861-19.413-24.497-18.028-21.417-21.73 3.571-4.292 7.497-10.858 8.224-13.752.356-1.42.999-2.583 1.428-2.583.988 0 35.381 53.956 34.778 54.56-.246.245-10.601-7.177-23.013-16.494z" fill="#000"/></svg>