<svg version="1.1" xmlns="http://www.w3.org/2000/svg">
  <path
     style="fill:#000000"
     d="m 189.32039,702.97568 c -0.26339,-0.691 -0.36287,-44.68137 -0.22106,-97.75637 l 0.25784,-96.5 45,-0.29536 c 47.01969,-0.30862 51.80653,0.0355 52.78977,3.79544 0.80421,3.07529 -3.74713,11.11847 -10.3998,18.37869 -3.90479,4.26139 -5.92024,7.26984 -5.7119,8.52611 0.20354,1.22738 12.08948,10.47487 32.32193,25.14711 17.6,12.76322 33.01621,24.12977 34.25824,25.259 l 2.25825,2.05313 -0.25825,56.06794 -0.25824,56.06794 -74.77894,0.25637 c -59.29354,0.20329 -74.87811,-0.004 -75.25784,-1 z m 160.2167,-31.40978 c -0.37395,-0.37396 -0.67992,-21.89714 -0.67992,-47.82928 l 0,-47.14936 -8.07384,-13.80945 c -13.68802,-23.41189 -33.94221,-55.92249 -36.54852,-58.66511 -3.70364,-3.89733 -8.64515,-4.89339 -24.27641,-4.89339 l -14.16673,0 0.28275,-11.25 0.28275,-11.25 47.09711,0 c 38.4491,0 47.40061,0.25201 48.75,1.37244 3.90606,3.24332 0.82622,10.20362 -9.69726,21.91536 -3.10742,3.45829 -5.64985,6.68039 -5.64985,7.16023 0,0.47983 14.7375,11.55799 32.75,24.61813 18.0125,13.06014 33.76621,24.65746 35.00824,25.77183 l 2.25825,2.02613 -0.25825,56.06794 -0.25824,56.06794 -33.07008,0.26326 c -18.18854,0.14479 -33.37604,-0.0427 -33.75,-0.41667 z M 311.35717,555.64444 c -27.5779,-20.71461 -25.1782,-18.01603 -20.83575,-23.43084 1.98233,-2.47186 4.72174,-6.90031 6.08757,-9.841 2.984,-6.42464 2.09722,-7.13963 13.45281,10.84671 4.68773,7.425 12.17774,19.2375 16.64446,26.25 4.46672,7.0125 7.79047,12.73875 7.38611,12.725 -0.40436,-0.0138 -10.6352,-7.46119 -22.7352,-16.54987 z m 76.26186,-32.35986 c -25.86107,-19.41313 -24.49668,-18.02876 -21.4169,-21.7306 3.5709,-4.29215 7.49728,-10.85792 8.22354,-13.75158 0.35658,-1.4207 0.99935,-2.58309 1.4284,-2.58309 0.98769,0 35.38088,53.95555 34.77769,54.55875 -0.24552,0.24551 -10.60125,-7.17655 -23.01273,-16.49348 z"
     id="path32422" />
</svg>
