<svg version="1.1" xmlns="http://www.w3.org/2000/svg" width="24" height="24" viewBox="0 0 24 24">
<path d="M18.984 21v-2.016h2.016c0 1.078-0.938 2.016-2.016 2.016zM18.984 12.984v-1.969h2.016v1.969h-2.016zM15 5.016v-2.016h2.016v2.016h-2.016zM18.984 17.016v-2.016h2.016v2.016h-2.016zM11.016 23.016v-22.031h1.969v22.031h-1.969zM18.984 3c1.078 0 2.016 0.938 2.016 2.016h-2.016v-2.016zM3 5.016c0-1.078 0.938-2.016 2.016-2.016h3.984v2.016h-3.984v13.969h3.984v2.016h-3.984c-1.078 0-2.016-0.938-2.016-2.016v-13.969zM18.984 9v-2.016h2.016v2.016h-2.016zM15 21v-2.016h2.016v2.016h-2.016z"></path>
</svg>
