<?xml version="1.0" encoding="UTF-8" standalone="no"?>
<!-- Created with Inkscape (http://www.inkscape.org/) -->

<svg
   xmlns:dc="http://purl.org/dc/elements/1.1/"
   xmlns:cc="http://creativecommons.org/ns#"
   xmlns:rdf="http://www.w3.org/1999/02/22-rdf-syntax-ns#"
   xmlns:svg="http://www.w3.org/2000/svg"
   xmlns="http://www.w3.org/2000/svg"
   xmlns:sodipodi="http://sodipodi.sourceforge.net/DTD/sodipodi-0.dtd"
   xmlns:inkscape="http://www.inkscape.org/namespaces/inkscape"
   width="744.09448819"
   height="1052.3622047"
   id="svg2"
   version="1.1"
   inkscape:version="0.48.2 r9819"
   sodipodi:docname="folder.svg">
  <defs
     id="defs4" />
  <sodipodi:namedview
     id="base"
     pagecolor="#ffffff"
     bordercolor="#666666"
     borderopacity="1.0"
     inkscape:pageopacity="0.0"
     inkscape:pageshadow="2"
     inkscape:zoom="1.4"
     inkscape:cx="365.66271"
     inkscape:cy="540.58154"
     inkscape:document-units="px"
     inkscape:current-layer="g6255"
     showgrid="false"
     inkscape:window-width="617"
     inkscape:window-height="688"
     inkscape:window-x="0"
     inkscape:window-y="0"
     inkscape:window-maximized="0" />
  <metadata
     id="metadata7">
    <rdf:RDF>
      <cc:Work
         rdf:about="">
        <dc:format>image/svg+xml</dc:format>
        <dc:type
           rdf:resource="http://purl.org/dc/dcmitype/StillImage" />
        <dc:title></dc:title>
      </cc:Work>
    </rdf:RDF>
  </metadata>
  <g
     inkscape:label="Layer 1"
     inkscape:groupmode="layer"
     id="layer1">
    <g
       id="g6255"
       transform="translate(-42.857143,-20)">
      <path
         style="fill:#000000"
         d="m 313.03061,584.99023 c -8.34577,-3.78911 -7.81632,2.58203 -7.81632,-94.05662 0,-110.60139 -13.05488,-95.94859 85.51137,-95.97804 l 73.51136,-0.022 16.26359,16.28603 16.26359,16.28602 -0.27495,74.46398 c -0.31074,84.15511 0.16516,79.27204 -8.09128,83.02059 -6.50723,2.95438 -168.86013,2.95438 -175.36736,0 z m 145.67994,-40.80662 c -0.005,-44.99695 6.03888,-40.75 -57.99626,-40.75 -64.03514,0 -57.99079,-4.24695 -57.99626,40.75 l -0.004,30.75 58,0 58,0 -0.004,-30.75 z m -11.44707,-75.25 c 5.14101,-4.74514 5.45081,-6.76098 5.45081,-35.46788 l 0,-26.53212 -52,0 -52,0 0,26.4349 c 0,30.43953 0.89969,34.42222 8.5,37.6272 5.67093,2.39137 87.24812,0.52328 90.04919,-2.0621 z m -33.54919,-29 0,-25 12.5,0 12.5,0 0,25 0,25 -12.5,0 -12.5,0 0,-25 z"
         id="path6257"
         inkscape:connector-curvature="0" />
    </g>
  </g>
</svg>
