<svg xmlns="http://www.w3.org/2000/svg"><path d="M98.58,152.53c-10.62-2.65-23.64-2.65-34.26-2.65.68-7.31.94-15.47-1.71-23.43C60.43,120.66,56.21,115.21,51,110,45.3,115.35,40.82,121,38.17,129c-1.88,9-.8,13.92-.41,20.92-10.62,0-23.9,0-34.53,2.65A106,106,0,0,0,5.89,118c11.55.78,19.36.65,26.56-2.66,5.31-2.66,8-4.78,13.28-10.62-6.5-6.5-12.79-9.21-21.25-10.63a82.7,82.7,0,0,0-18.59-.94c.67-13.7,0-23-2.66-33.59,10.63,2.66,23.66,3.33,34.53,2.66,0,8,0,15.94,2.66,23.9,2.65,5.32,4.21,7.81,10.62,13.28,6.74-6,9.79-10.66,10.62-18.59a81.8,81.8,0,0,0,.12-18.59c11.78.67,25.73-.3,36.35-2.95-2.59,14.92-2.78,22.48-1.94,33.88-8.62-.55-16.37-.46-23.9.94a33.3,33.3,0,0,0-15.94,10.63c5.8,6.69,9.35,9.76,16.31,12.41,8.73,2.24,14.45,1.88,23.53.87C95.48,130.76,95.93,141.91,98.58,152.53Z"/><path d="M0,188.5V0M.5.5V188"/></svg>