<svg xmlns="http://www.w3.org/2000/svg"><path d="M150,117a30.17,30.17,0,0,0-7.55-19.1c-5.49-6.2-12-9.2-19.66-9.2-12.31.2-23.28,4.7-33.21,13.4V.25H81.07v93.1a24.47,24.47,0,0,0-14.59-4.6c-12.21.2-23.28,4.7-33.11,13.4V.25H24.79v188q24.21-17.4,48.52-34.6l7.76-7v41.6c16.14-11.7,32.39-23.2,48.53-34.7l8.9-8c3.72-3.4,6.1-6.6,7.24-9.5C148.74,128.85,150.19,122.55,150,117Zm-85.46,18.5a40.41,40.41,0,0,1-12.83,21c-12,11.3-18.11,16.4-18.42,15.6v-27.4c0-16.5,1.24-27,3.62-31.5,3.21-5.7,7.56-8.6,12.73-8.6a12.63,12.63,0,0,1,10.14,4.5h.1c3.93,4.2,5.9,9.9,5.9,16.9a29.78,29.78,0,0,1-1.24,9.5Zm56.28,0a40.47,40.47,0,0,1-12.83,21c-12,11.3-18.21,16.4-18.41,15.6v-27.4c0-16.5,1.24-27,3.62-31.5,3.31-5.7,7.55-8.6,12.83-8.6a12.64,12.64,0,0,1,10.14,4.5c3.93,4.2,5.89,9.9,5.89,16.9a29.5,29.5,0,0,1-1.24,9.5Z"/></svg>