<?xml version="1.0" encoding="utf-8"?>
<!DOCTYPE svg PUBLIC "-//W3C//DTD SVG 1.1//EN" "http://www.w3.org/Graphics/SVG/1.1/DTD/svg11.dtd">
<svg version="1.1" xmlns="http://www.w3.org/2000/svg" xmlns:xlink="http://www.w3.org/1999/xlink" width="32" height="32" viewBox="0 0 32 32">
	<path d="M30.944 21.67l-5.094-3.427h-3.141l5.44 4.173h-5.672c-0.163 0-0.309 0.083-0.384 0.213l-1.306 3.576h-9.574l-1.307-3.576c-0.072-0.13-0.221-0.213-0.384-0.213h-5.67l5.442-4.173h-3.142l-5.093 3.427c-0.758 0.453-1.211 1.498-1.008 2.318l0.898 4.918c0.203 0.822 1.106 1.496 2.002 1.496h26.101c0.899 0 1.8-0.674 2.003-1.496l0.898-4.918c0.206-0.822-0.248-1.866-1.006-2.318zM24.322 11.395h-5.282v-8.192h-6.080v8.192h-5.28l8.32 7.808 8.322-7.808z" fill="#000000"></path>
</svg>
