<svg version="1.1" xmlns="http://www.w3.org/2000/svg" width="256" height="256"><path d="M19.563 245.304c-5.514-5.083-5.57-4.462 2.154-24.126 6.312-16.075 18.52-40.915 26.722-54.38 5.078-8.334 5.633-9.843 6.733-18.307 2.196-16.897 5.9-24.999 23.086-50.483 37.439-55.516 70.11-77.57 114.911-77.57 25.783.001 41.275 7.508 48.625 23.561 7.389 16.14.63 23.344-18.866 20.112-27.808-4.61-49.155 17.32-86.468 88.828-9.996 19.157-12.125 20.322-43.332 23.707-13.733 1.49-12.4-.206-21.485 27.332l-6.64 20.127-19.752 12.702c-22.939 14.75-19.97 13.768-25.688 8.497zm22.268-18.436c12.15-8.855 11.685-8.234 17.855-23.86 22.56-57.13 60.693-114.946 98.855-149.88 14.34-13.127 10.417-12.519-7.23 1.12-40.66 31.427-90.11 100.711-117.068 164.024-8.762 20.578-8.798 20.537 7.588 8.596z" fill="#000"/></svg>