<svg version="1.1" xmlns="http://www.w3.org/2000/svg" width="25" height="32" viewBox="0 0 25 32"><path d="M0 16.571v-3.429q0-.714.5-1.214t1.214-.5h3.429q.714 0 1.214.5t.5 1.214v3.429q0 .714-.5 1.214t-1.214.5H1.714q-.714 0-1.214-.5T0 16.571zm9.143 0v-3.429q0-.714.5-1.214t1.214-.5h3.429q.714 0 1.214.5t.5 1.214v3.429q0 .714-.5 1.214t-1.214.5h-3.429q-.714 0-1.214-.5t-.5-1.214zm9.143 0v-3.429q0-.714.5-1.214t1.214-.5h3.429q.714 0 1.214.5t.5 1.214v3.429q0 .714-.5 1.214t-1.214.5H20q-.714 0-1.214-.5t-.5-1.214z" fill="#000"/></svg>