<?xml version="1.0" encoding="UTF-8" standalone="no"?>
<!-- Created with Inkscape (http://www.inkscape.org/) -->

<svg
   xmlns:dc="http://purl.org/dc/elements/1.1/"
   xmlns:cc="http://creativecommons.org/ns#"
   xmlns:rdf="http://www.w3.org/1999/02/22-rdf-syntax-ns#"
   xmlns:svg="http://www.w3.org/2000/svg"
   xmlns="http://www.w3.org/2000/svg"
   xmlns:sodipodi="http://sodipodi.sourceforge.net/DTD/sodipodi-0.dtd"
   xmlns:inkscape="http://www.inkscape.org/namespaces/inkscape"
   width="744.09448819"
   height="1052.3622047"
   id="svg2"
   version="1.1"
   inkscape:version="0.48.2 r9819"
   sodipodi:docname="hourglass.svg">
  <defs
     id="defs4" />
  <sodipodi:namedview
     id="base"
     pagecolor="#ffffff"
     bordercolor="#666666"
     borderopacity="1.0"
     inkscape:pageopacity="0.0"
     inkscape:pageshadow="2"
     inkscape:zoom="1.4"
     inkscape:cx="365.66271"
     inkscape:cy="540.58154"
     inkscape:document-units="px"
     inkscape:current-layer="layer1"
     showgrid="false"
     inkscape:window-width="617"
     inkscape:window-height="688"
     inkscape:window-x="0"
     inkscape:window-y="0"
     inkscape:window-maximized="0" />
  <metadata
     id="metadata7">
    <rdf:RDF>
      <cc:Work
         rdf:about="">
        <dc:format>image/svg+xml</dc:format>
        <dc:type
           rdf:resource="http://purl.org/dc/dcmitype/StillImage" />
        <dc:title></dc:title>
      </cc:Work>
    </rdf:RDF>
  </metadata>
  <g
     inkscape:label="Layer 1"
     inkscape:groupmode="layer"
     id="layer1">
    <path
       style="fill:#000000"
       d="m 239.39908,580.28896 c -7.75013,-3.82066 -7.25623,2.80027 -7.25623,-97.27303 0,-111.93047 -4.95378,-99.07295 38.17327,-99.07857 33.61998,-0.004 31.43567,-0.73599 38.83213,13.00629 7.0848,13.16324 1.29559,11.98997 59.16158,11.98997 63.50437,0 60.94847,-0.81962 61.83302,19.82844 l 0.5,11.67156 13.20495,0.60548 c 13.73831,0.62993 18.29505,2.01257 18.29505,5.55124 0,3.64842 -25.1501,121.14291 -26.67715,124.62846 -0.91208,2.08185 -3.38414,5.34435 -5.49347,7.25 l -3.83514,3.46482 -91.74712,-0.0228 c -82.03163,-0.0204 -92.09062,-0.19211 -94.99089,-1.62189 z m 20.09163,-74.65826 c 15.5627,-73.97161 2.6697,-64.69352 89.90214,-64.69553 l 67.75,-0.002 0,-7.9433 c 0,-11.99615 4.65799,-11.0567 -54.82138,-11.0567 -60.91949,0 -57.35588,0.90548 -63.66681,-16.1772 -3.24573,-8.78565 -4.37775,-9.27475 -22.3394,-9.65177 -19.84776,-0.41662 -25.7032,0.26885 -28.80659,3.37224 -2.31128,2.31128 -3.95702,155.14655 -1.73304,160.94216 1.29538,3.3757 2.44055,-1.19897 13.71508,-54.78835 z"
       id="path5916"
       inkscape:connector-curvature="0" />
  </g>
</svg>
