<svg version="1.1" xmlns="http://www.w3.org/2000/svg"><g stroke="none" stroke-width="1" fill="#000" fill-rule="evenodd"><path d="M18.116 27.232c-2.47-1.238-3.117-.472-1.43 1.729l22.182 28.944 1.735-7.876c.355-1.613 1.848-3.522 3.333-4.263l5.595-2.792-31.415-15.742zM5.022 78.965c-2.506 1.16-2.302 2.102.47 2.102h36.861l-5.141-6.172c-1.06-1.273-1.61-3.61-1.224-5.226L37.339 64 5.022 78.965zM37.464 122.514c-.603 2.693.286 3.116 1.991.937L62.69 93.768H54.81c-1.658 0-3.831-1.055-4.856-2.358l-4.298-5.467-8.193 36.571zM90.053 123.397c1.695 2.175 2.583 1.757 1.982-.936l-8.27-37.086-4.342 5.549c-1.021 1.305-3.195 2.363-4.85 2.363h-7.979l23.46 30.11zM123.475 81.067c2.766 0 2.975-.942.472-2.102L91.632 64l1.35 5.667c.385 1.612-.163 3.95-1.224 5.225l-5.143 6.175h36.86zM113.417 28.912c1.714-2.166 1.084-2.942-1.387-1.743L79.437 42.98l5.87 2.834c1.49.72 2.995 2.604 3.363 4.223l1.791 7.869 22.956-28.993zM63.398 4.263c.6-2.691 1.575-2.681 2.173 0l7.885 35.35-6.275-3.08c-1.486-.729-3.9-.725-5.384.002l-6.285 3.084 7.886-35.356z"/></g></svg>