<?xml version="1.0" encoding="UTF-8" standalone="no"?>
<!-- Created with Inkscape (http://www.inkscape.org/) -->

<svg
   xmlns:dc="http://purl.org/dc/elements/1.1/"
   xmlns:cc="http://creativecommons.org/ns#"
   xmlns:rdf="http://www.w3.org/1999/02/22-rdf-syntax-ns#"
   xmlns:svg="http://www.w3.org/2000/svg"
   xmlns="http://www.w3.org/2000/svg"
   xmlns:sodipodi="http://sodipodi.sourceforge.net/DTD/sodipodi-0.dtd"
   xmlns:inkscape="http://www.inkscape.org/namespaces/inkscape"
   width="744.09448819"
   height="1052.3622047"
   id="svg2"
   version="1.1"
   inkscape:version="0.48.2 r9819"
   sodipodi:docname="trash_can.svg">
  <defs
     id="defs4" />
  <sodipodi:namedview
     id="base"
     pagecolor="#ffffff"
     bordercolor="#666666"
     borderopacity="1.0"
     inkscape:pageopacity="0.0"
     inkscape:pageshadow="2"
     inkscape:zoom="1.4"
     inkscape:cx="365.66271"
     inkscape:cy="540.58154"
     inkscape:document-units="px"
     inkscape:current-layer="layer1"
     showgrid="false"
     inkscape:window-width="617"
     inkscape:window-height="688"
     inkscape:window-x="0"
     inkscape:window-y="0"
     inkscape:window-maximized="0" />
  <metadata
     id="metadata7">
    <rdf:RDF>
      <cc:Work
         rdf:about="">
        <dc:format>image/svg+xml</dc:format>
        <dc:type
           rdf:resource="http://purl.org/dc/dcmitype/StillImage" />
        <dc:title></dc:title>
      </cc:Work>
    </rdf:RDF>
  </metadata>
  <g
     inkscape:label="Layer 1"
     inkscape:groupmode="layer"
     id="layer1">
    <g
       id="g5291"
       transform="translate(-40,52.857143)">
      <path
         style="fill:#000000"
         d="m 309.85714,572.86218 0,-9.5 6.35705,0 6.35704,0 0.6724,-9.76279 c 2.24007,-32.52416 11.2486,-49.24248 35.915,-66.65218 20.34032,-14.35633 20.34032,-24.81373 0,-39.17006 -24.6664,-17.4097 -33.67493,-34.12802 -35.915,-66.65218 l -0.6724,-9.76279 -6.35704,0 -6.35705,0 0,-9.5 0,-9.5 79.5,0 79.5,0 0,9.45228 0,9.45228 -6.25,0.29772 -6.25,0.29772 -0.65431,11 c -1.82866,30.74254 -11.20104,47.84403 -35.54976,64.86654 -20.98582,14.67147 -20.66678,24.65625 1.28501,40.21673 22.99863,16.30252 34.36604,37.85951 34.43271,65.29772 0.0235,9.68628 0.32729,10.11901 7.10298,10.11901 l 5.88337,0 0,9.5 0,9.5 -79.5,0 -79.5,0 0,-9.5 z m 134.90032,-12.75 c -0.21846,-7.12274 -0.18917,-7.09871 -26.40032,-21.65681 l -25,-13.88541 0.0104,-32.35389 c 0.0132,-41.15478 -0.0618,-40.94392 19.55652,-54.95063 9.93307,-7.09179 18.86473,-15.8514 22.33145,-21.90126 2.25668,-3.93818 4.48189,-4.35176 -18.00393,3.34622 -28.0642,9.60773 -28.10319,9.60676 -59.80835,-1.48572 -16.18747,-5.66341 -15.91659,-5.70595 -10.98416,1.72507 3.79178,5.71257 8.44074,9.8582 24.29186,21.66192 14.60321,10.87443 14.55568,10.71217 14.86522,50.75051 l 0.259,33.5 -25.49577,14 -25.49576,14 -0.0132,5.25 -0.0132,5.25 55,0 55,0 -0.0997,-3.25 z"
         id="path5293"
         inkscape:connector-curvature="0" />
    </g>
  </g>
</svg>
