<?xml version="1.0" encoding="UTF-8" standalone="no"?>
<svg width="128px" height="128px" viewBox="0 0 128 128" version="1.1" xmlns="http://www.w3.org/2000/svg" xmlns:xlink="http://www.w3.org/1999/xlink">
    <g id="Controls" stroke="none" stroke-width="1" fill="none" fill-rule="evenodd">
        <g id="insert-space" fill="#000000">
            <rect id="Line" x="56" y="14" width="17" height="100" rx="8"></rect>
            <path d="M33.7472,80 C32.1088,80 30.4736,79.376 29.2224,78.1248 L15.0976,64 L29.2224,49.8752 C31.7216,47.376 35.7792,47.376 38.272,49.8752 C40.7712,52.3744 40.7712,56.4256 38.272,58.9248 L33.2,64 L38.272,69.0752 C40.7712,71.5744 40.7712,75.6256 38.272,78.1248 C37.024,79.376 35.3856,80 33.7472,80 L33.7472,80 Z" id="Shape"></path>
            <path d="M93.2528,80 C91.6144,80 89.976,79.376 88.728,78.1248 C86.2288,75.6256 86.2288,71.5744 88.728,69.0752 L93.8,64 L88.728,58.9248 C86.2288,56.4256 86.2288,52.3744 88.728,49.8752 C91.2208,47.376 95.2784,47.376 97.7776,49.8752 L111.9024,64 L97.7776,78.1248 C96.5296,79.376 94.8912,80 93.2528,80 L93.2528,80 Z" id="Shape"></path>
        </g>
    </g>
</svg>