<svg version="1.1" xmlns="http://www.w3.org/2000/svg" width="744.094" height="1052.362"><path d="M371.906 383.875c-.97.013-1.975.064-3.031.125-20.234 1.171-22.304 6.342-39.469 99.281-13.591 73.593-14.501 77.495-18.344 78.969-5.052 1.939-5.377-5.869-1.125-26.25 6.11-29.28 6.056-32.669-.562-43.219-9.231-14.716-9-14.245-9.094-20.469-.088-5.8-3.191-11.654-6.062-11.468-.476.03-14.825 9.15-31.875 20.281l-31 20.25v9.75l5.781 1.313c15.725 3.57 17.483 7.484 14.219 31.343-5.444 39.786 5.186 61.658 33.281 68.469 31.869 7.725 57.672-6.957 65.688-37.344l1.375-5.187-3.938-1.594c-12.977-5.192-10.036-22.617 4.094-24.313 4.96-.595 4.665.003 6.406-13.78.572-4.527.442-5.35-1.094-5.845-5.733-1.85-7.473-2.95-9.281-5.875-5.252-8.497 1.163-19.53 11.375-19.53 2.71 0 3.106-.814 4.063-8.5.342-2.75.87-6.198 1.156-7.657.456-2.326.06-2.792-3.031-3.813-13.542-4.469-11.132-22.79 3.25-24.718 2.385-.32 4.156-1.091 4.156-1.813 0-3.576 4.002-30.373 4.875-32.656 2.995-7.832 6.975-4.68 10.594 8.375 2.762 9.97 8.802 12.772 27.562 12.781 25.337.013 39.02-8.655 23.469-14.875-9.322-3.728-14.79-3.979-17.781-.75-7.3 7.877-16.9-.182-21.282-17.875-4.51-18.204-9.811-23.607-24.375-23.406zm-2.031 71.156a1.175 1.175 0 0 0-.969.406c-.943 1.078-4.1 22.447-3.469 23.47 2.461 3.98 11.907-5.739 11.907-12.25 0-4.463-4.865-11.515-7.469-11.626zm-7.375 44.781c-.407.038-.656.327-.656.907 0 1.171-1.822 15.486-2.531 19.812-.459 2.796-.26 3.25 1.53 3.25 8.976 0 13.42-13.799 6.626-20.593-2.286-2.286-4.073-3.459-4.969-3.375zm-164.656 43.25h21.437-21.437zm159.906 1.844c-.3.05-.56.223-.813.5-.858.945-4.093 17.735-4.093 21.282 0 5.492 10.421-1.222 11.594-7.47.999-5.327-3.783-14.789-6.688-14.312z" fill="#000"/></svg>