<!-- Generated by IcoMoon.io -->
<svg version="1.1" xmlns="http://www.w3.org/2000/svg" width="20" height="20" viewBox="0 0 20 20">
<title>settings_input_composite</title>
<path d="M14.18 13.32v-1.641h5v1.641c0 1.094-0.703 1.992-1.68 2.344v3.516h-1.68v-3.516c-0.977-0.352-1.641-1.25-1.641-2.344zM10.82 1.68v3.32h1.68v5h-5v-5h1.68v-3.32c0-0.469 0.352-0.859 0.82-0.859s0.82 0.391 0.82 0.859zM17.5 5h1.68v5h-5v-5h1.641v-3.32c0-0.469 0.391-0.859 0.859-0.859s0.82 0.391 0.82 0.859v3.32zM0.82 13.32v-1.641h5v1.641c0 1.094-0.664 1.992-1.641 2.344v3.516h-1.68v-3.516c-0.977-0.352-1.68-1.25-1.68-2.344zM7.5 13.32v-1.641h5v1.641c0 1.094-0.703 1.992-1.68 2.344v3.516h-1.641v-3.516c-0.977-0.352-1.68-1.25-1.68-2.344zM4.18 1.68v3.32h1.641v5h-5v-5h1.68v-3.32c0-0.469 0.352-0.859 0.82-0.859s0.859 0.391 0.859 0.859z"></path>
</svg>
