<svg version="1.1" xmlns="http://www.w3.org/2000/svg" width="20" height="20" viewBox="0 0 20 20"><path d="M14.18 13.32v-1.641h5v1.641c0 1.094-.703 1.992-1.68 2.344v3.516h-1.68v-3.516a2.456 2.456 0 0 1-1.641-2.344zM10.82 1.68V5h1.68v5h-5V5h1.68V1.68c0-.469.352-.859.82-.859s.82.391.82.859zM17.5 5h1.68v5h-5V5h1.641V1.68c0-.469.391-.859.859-.859s.82.391.82.859V5zM.82 13.32v-1.641h5v1.641a2.456 2.456 0 0 1-1.641 2.344v3.516h-1.68v-3.516c-.977-.352-1.68-1.25-1.68-2.344zm6.68 0v-1.641h5v1.641c0 1.094-.703 1.992-1.68 2.344v3.516H9.179v-3.516c-.977-.352-1.68-1.25-1.68-2.344zM4.18 1.68V5h1.641v5h-5V5h1.68V1.68c0-.469.352-.859.82-.859s.859.391.859.859z"/></svg>