<svg xmlns="http://www.w3.org/2000/svg"><path d="M9.58 6.13A26.78 26.78 0 0 1 24.32 0v4.91a21.82 21.82 0 0 0-11.27 4.7zm19.63-1.22V0a26.6 26.6 0 0 1 14.74 6.13l-3.48 3.48a21.82 21.82 0 0 0-11.26-4.7m14.71 8.14 3.47-3.47a26.78 26.78 0 0 1 6.14 14.74H48.6a21.82 21.82 0 0 0-4.69-11.27m-39 11.27H0A26.78 26.78 0 0 1 6.13 9.58l3.48 3.47a21.82 21.82 0 0 0-4.7 11.27m21.85 24.44c7.6 0 14.3-3.89 18.24-9.78h-6.02V34.1h14.67v14.66h-4.89v-6.6a26.8 26.8 0 0 1-22 11.49c-11.9 0-22-7.75-25.51-18.48l4.79-1.1a22 22 0 0 0 20.72 14.7"/></svg>