<?xml version="1.0" encoding="UTF-8" standalone="no"?>
<svg
   xmlns:dc="http://purl.org/dc/elements/1.1/"
   xmlns:cc="http://creativecommons.org/ns#"
   xmlns:rdf="http://www.w3.org/1999/02/22-rdf-syntax-ns#"
   xmlns:svg="http://www.w3.org/2000/svg"
   xmlns="http://www.w3.org/2000/svg"
   width="744.09448819"
   height="1052.3622047"
   id="svg2"
   version="1.1">
  <g id="layer1">
    <path
       style="fill:#000000"
       d="m 323.39602,631.36921 c -73.62458,-9.19645 -119.57137,-89.07277 -90.3329,-157.03944 2.3933,-5.56337 2.81592,-5.67632 8.68497,-2.32115 5.54313,3.16884 10.10236,3.22982 12.97362,0.1735 4.33914,-4.61881 2.49432,-9.35912 -5.36954,-13.79721 -3.00088,-1.69359 -5.45615,-3.30433 -5.45615,-3.57943 0,-3.49 26.80086,-30.30891 30.28852,-30.30891 0.28631,0 1.90623,2.45527 3.59982,5.45615 4.52674,8.02093 9.60074,9.84551 14.09018,5.06672 2.97899,-3.17099 2.86391,-6.8432 -0.39301,-12.54146 -1.40878,-2.46478 -2.56684,-4.9885 -2.57347,-5.60827 -0.0278,-2.60355 22.68364,-9.95913 33.99685,-11.01058 l 6.75045,-0.62739 0.40982,7.25274 c 0.88778,15.71157 14.77395,15.71073 15.66173,-9.5e-4 l 0.40987,-7.25369 6.12962,0.59085 c 7.05962,0.68049 18.66985,3.55273 26.62962,6.58788 9.03851,3.44647 8.91592,3.23797 5.625,9.56756 -7.7275,14.86271 5.26396,22.54642 13.48666,7.97659 1.69359,-3.00088 3.31351,-5.45615 3.59982,-5.45615 3.48766,0 30.28852,26.81891 30.28852,30.30891 0,0.2751 -2.45527,1.88584 -5.45615,3.57943 -7.91852,4.46894 -9.8444,9.60178 -5.2294,13.93735 3.06099,2.87565 7.44187,2.76858 12.83348,-0.31364 5.86905,-3.35517 6.29167,-3.24222 8.68497,2.32115 34.2112,79.52609 -32.89502,167.83639 -119.3329,157.03944 z m 32.5,-36.91225 c 48.58706,-11.57858 74.08213,-65.75167 51.98511,-110.46039 -28.50963,-57.68334 -111.47386,-57.68334 -139.96809,0 -29.0762,58.86148 24.14099,125.6743 87.98298,110.46039 z m -26,-14.00114 c -50.72948,-6.372 -72.43795,-69.14736 -36.50075,-105.55083 16.58346,-16.79861 41.83481,-23.10469 63.58708,-15.87975 6.00862,1.99575 7.07829,-1.37587 -7.58633,23.9121 -14.42429,24.87354 -15.51267,29.83333 -7.0147,31.96618 5.26406,1.3212 7.43222,-1.21074 20.39475,-23.81676 13.97815,-24.3772 13.01095,-23.63548 20.40549,-15.64849 39.85836,43.05178 4.72027,112.30351 -53.28554,105.01755 z"
       id="path4659" />
  </g>
</svg>
