<svg version="1.1" xmlns="http://www.w3.org/2000/svg" width="32" height="32" viewBox="0 0 32 32"><path d="M29.894 18.237L24.857 6.25c-.397-.8-1.453-1.454-2.347-1.454H9.491c-.894 0-1.95.654-2.349 1.454L2.107 18.237c-.4.8-.606 2.176-.459 3.059l1.088 5.898c.147.882.997 1.603 1.89 1.603h22.752c.894 0 1.744-.722 1.891-1.603l1.088-5.898c.142-.882-.062-2.259-.462-3.059zm-2.182 4.201l-.413 2.403c-.125.923-.957 1.678-1.846 1.678H6.547c-.891 0-1.722-.755-1.846-1.678l-.414-2.403c-.123-.923.504-1.678 1.397-1.678h20.634c.893.002 1.52.755 1.395 1.678z" fill="#000"/></svg>