<svg version="1.1" xmlns="http://www.w3.org/2000/svg" width="32" height="32" viewBox="0 0 32 32">
	<path d="M29.894 18.237l-5.037-11.987c-0.397-0.8-1.453-1.454-2.347-1.454h-13.019c-0.894 0-1.95 0.654-2.349 1.454l-5.035 11.987c-0.4 0.8-0.606 2.176-0.459 3.059l1.088 5.898c0.147 0.882 0.997 1.603 1.89 1.603h22.752c0.894 0 1.744-0.722 1.891-1.603l1.088-5.898c0.142-0.882-0.062-2.259-0.462-3.059zM27.712 22.438l-0.413 2.403c-0.125 0.923-0.957 1.678-1.846 1.678h-18.906c-0.891 0-1.722-0.755-1.846-1.678l-0.414-2.403c-0.123-0.923 0.504-1.678 1.397-1.678h20.634c0.893 0.002 1.52 0.755 1.395 1.678z" fill="#000000"></path>
</svg>
