<svg version="1.1" xmlns="http://www.w3.org/2000/svg"><path d="M50.197 0c-12.6 0-22.813 10.215-22.813 22.813 0 2.93.614 5.705 1.627 8.278L1.296 58.804C.495 59.607 0 60.369 0 61.594v6.843C0 70.879 2.12 73 4.563 73h6.843c1.223 0 1.996-.49 2.797-1.287l3.274-3.275h5.345a4.564 4.564 0 0 0 4.562-4.563v-4.563h4.563a4.564 4.564 0 0 0 4.562-4.562v-5.347l5.404-5.41c2.576 1.016 5.348 1.632 8.284 1.632 12.594 0 22.812-10.215 22.812-22.813C73.01 10.216 62.791 0 50.197 0zm11.13 20.93a40.399 40.399 0 0 0-9.249-9.248 2.192 2.192 0 0 0-2.011-.29c-3.169 1.115-5.338 3.283-6.446 6.452a2.2 2.2 0 0 0 .29 2.012 40.46 40.46 0 0 0 9.244 9.247c.584.42 1.332.527 2.01.292 3.172-1.109 5.341-3.28 6.455-6.452.084-.237.125-.484.125-.728a2.235 2.235 0 0 0-.417-1.284z" fill="#000" stroke="none" stroke-width="1" fill-rule="evenodd"/></svg>