<svg xmlns="http://www.w3.org/2000/svg"><path d="M173.46 47.75a8.47 8.47 0 0 0-11.96-.37l-7.14 6.67-2.25-2.25a8.47 8.47 0 1 0-11.96 11.96l1.85 1.88-9.31 8.73-6.09-47.28a8.6 8.6 0 0 0-8.63-7.4H81.14a8.6 8.6 0 0 0-8.62 7.4L57.3 145.62a8.55 8.55 0 0 0 8.62 9.53h67.23a8.56 8.56 0 0 0 8.63-9.53L135.3 95.1l18.65-17.47 3.1 3.07a8.44 8.44 0 0 0 11.95 0 8.47 8.47 0 0 0 0-11.96l-2.7-2.7 6.75-6.32a8.47 8.47 0 0 0 .37-11.96zm-97.18 56.6h-2.12l8.47-67.74h33.86l5.93 47.4-14.4 13.49V62a8.47 8.47 0 0 0-16.93 0v42.34H76.3z"/><path d="M32.0 55.0h.01v.01h-.01z"/></svg>