<svg xmlns="http://www.w3.org/2000/svg"><path d="M0,126.52a2.83,2.83,0,0,1,.89-2L5.36,120a2.78,2.78,0,0,1,4.1,0l35.07,35.06L79.59,120a2.8,2.8,0,0,1,4.11,0l4.46,4.46a2.8,2.8,0,0,1,.9,2,2.84,2.84,0,0,1-.9,2.06L46.59,170.15a2.8,2.8,0,0,1-4.11,0L.9,128.58A2.87,2.87,0,0,1,0,126.52Z"/><path d="M0,89.52a2.83,2.83,0,0,1,.89-2L5.36,83a2.78,2.78,0,0,1,4.1,0l35.07,35.06L79.59,83a2.8,2.8,0,0,1,4.11,0l4.46,4.46a2.8,2.8,0,0,1,.9,2,2.84,2.84,0,0,1-.9,2.06L46.59,133.15a2.8,2.8,0,0,1-4.11,0L.9,91.58A2.87,2.87,0,0,1,0,89.52Z"/><path d="M0,188.5V0M.5.5V188"/></svg>