<svg version="1.1" xmlns="http://www.w3.org/2000/svg"><path d="M12.563 5.156c-.31 0-.556.087-.782.313l-5.969 5.968H1.157c-.31 0-.586.118-.812.344-.226.227-.344.472-.344.781v6.876c0 .31.117.586.344.812.226.226.503.313.812.313h4.657l5.968 5.968c.226.226.471.312.781.313.31 0 .587-.086.813-.313.226-.226.344-.503.344-.812V6.28c0-.31-.118-.586-.344-.812-.226-.226-.502-.313-.813-.313zm4.374 5.188a.673.673 0 0 0-.468.187L15.25 11.75a.677.677 0 0 0 0 .938l3.5 3.5-3.5 3.468a.639.639 0 0 0 0 .907l1.219 1.25a.639.639 0 0 0 .906 0l3.5-3.5 3.5 3.5a.639.639 0 0 0 .906 0l1.219-1.25a.639.639 0 0 0 0-.907L23 16.188l3.5-3.5a.677.677 0 0 0 0-.938l-1.219-1.219a.639.639 0 0 0-.906 0l-3.5 3.5-3.5-3.5a.602.602 0 0 0-.438-.187z"/></svg>