<svg xmlns="http://www.w3.org/2000/svg"><path d="M1.375 23.429q0-.232.179-.411l8.321-8.321q.179-.179.411-.179t.411.179l8.321 8.321q.179.179.179.411t-.179.411l-.893.893q-.179.179-.411.179t-.411-.179l-7.018-7.018-7.018 7.018q-.179.179-.411.179t-.411-.179l-.893-.893q-.179-.179-.179-.411zm0-6.858q0-.232.179-.411l8.321-8.321q.179-.179.411-.179t.411.179l8.321 8.321q.179.179.179.411t-.179.411l-.893.893q-.179.179-.411.179t-.411-.179l-7.018-7.018-7.018 7.018q-.179.179-.411.179t-.411-.179l-.893-.893q-.179-.179-.179-.411z"/></svg>