<?xml version="1.0" encoding="UTF-8" standalone="no"?>
<!-- Created with Inkscape (http://www.inkscape.org/) -->

<svg
   xmlns:dc="http://purl.org/dc/elements/1.1/"
   xmlns:cc="http://creativecommons.org/ns#"
   xmlns:rdf="http://www.w3.org/1999/02/22-rdf-syntax-ns#"
   xmlns:svg="http://www.w3.org/2000/svg"
   xmlns="http://www.w3.org/2000/svg"
   xmlns:sodipodi="http://sodipodi.sourceforge.net/DTD/sodipodi-0.dtd"
   xmlns:inkscape="http://www.inkscape.org/namespaces/inkscape"
   width="744.09448819"
   height="1052.3622047"
   id="svg2"
   version="1.1"
   inkscape:version="0.48.2 r9819"
   sodipodi:docname="paste.svg">
  <defs
     id="defs4" />
  <sodipodi:namedview
     id="base"
     pagecolor="#ffffff"
     bordercolor="#666666"
     borderopacity="1.0"
     inkscape:pageopacity="0.0"
     inkscape:pageshadow="2"
     inkscape:zoom="1.979899"
     inkscape:cx="335.18158"
     inkscape:cy="397.73377"
     inkscape:document-units="px"
     inkscape:current-layer="layer1"
     showgrid="false"
     inkscape:window-width="736"
     inkscape:window-height="787"
     inkscape:window-x="0"
     inkscape:window-y="0"
     inkscape:window-maximized="0"
     showguides="true"
     inkscape:guide-bbox="true" />
  <metadata
     id="metadata7">
    <rdf:RDF>
      <cc:Work
         rdf:about="">
        <dc:format>image/svg+xml</dc:format>
        <dc:type
           rdf:resource="http://purl.org/dc/dcmitype/StillImage" />
        <dc:title></dc:title>
      </cc:Work>
    </rdf:RDF>
  </metadata>
  <g
     inkscape:label="Layer 1"
     inkscape:groupmode="layer"
     id="layer1">
    <path
       style="fill:#000000"
       d="M 324.46875 544.0625 C 320.11763 543.9697 315.64297 545.08334 311.375 547.40625 C 302.34825 552.31923 299.3408 558.01448 298.5 571.78125 L 297.9375 581.28125 L 286.9375 581.84375 C 275.26756 582.4362 270.90438 583.85342 268 588 C 266.45273 590.20905 265.80459 598.83585 267.09375 600.125 C 267.46041 600.49167 293.08965 600.78125 324.0625 600.78125 L 380.375 600.78125 L 381.03125 598.28125 C 383.7103 587.60705 375.76666 581.8609 358.3125 581.8125 L 349.71875 581.78125 L 349.15625 572.46875 C 348.4914 561.32501 346.06916 555.37373 340.15625 550.3125 C 335.47487 546.30541 330.06305 544.18175 324.46875 544.0625 z M 323.5625 560.75 C 328.29637 560.75 332.15625 564.57863 332.15625 569.3125 C 332.15625 574.04637 328.29637 577.90625 323.5625 577.90625 C 318.82863 577.90625 315 574.04637 315 569.3125 C 315 564.57863 318.82863 560.75 323.5625 560.75 z M 250.21875 569.75 L 246.9375 571.78125 C 245.12493 572.90148 242.9148 575.3568 242.03125 577.21875 L 240.4375 580.59375 L 240.4375 661.9375 L 240.4375 743.28125 L 242.1875 746.71875 C 243.14915 748.60465 245.1983 751.07965 246.75 752.21875 L 249.5625 754.28125 L 283.25 754.78125 L 316.9375 755.28125 L 317.1875 763.28125 C 317.33585 767.68125 317.65762 771.87045 317.90625 772.5625 C 318.26376 773.5575 330.25367 773.76675 375.15625 773.5625 L 431.9375 773.28125 L 431.9375 697.28125 L 431.9375 621.28125 L 420.5 621 C 414.16925 620.84254 408.47547 620.22708 407.75 619.625 C 406.75116 618.79603 406.4375 613.92794 406.4375 599.125 L 406.4375 579.6875 L 404.875 576.6875 C 404.0233 575.04049 401.8858 572.82362 400.125 571.75 L 396.9375 569.8125 L 376.78125 569.78125 L 356.65625 569.78125 L 356.03125 571.40625 C 354.82084 574.56051 357.23723 575.58204 366.8125 575.9375 L 376.09375 576.28125 L 380.0625 579.03125 C 382.2434 580.54375 385.27331 581.78125 386.78125 581.78125 C 388.35886 581.78125 390.55638 582.83763 391.96875 584.25 L 394.4375 586.6875 L 394.4375 602.625 C 394.4375 614.69853 394.10784 618.81463 393.09375 619.65625 C 392.18024 620.4144 380.05667 620.85196 354.84375 621.03125 L 317.9375 621.28125 L 317.4375 681.28125 L 316.9375 741.28125 L 287.03125 741.5625 L 257.125 741.8125 L 255.28125 740.15625 L 253.4375 738.46875 L 253.4375 661.6875 L 253.4375 584.90625 L 255.65625 583.34375 C 256.87862 582.48757 259.32359 581.78125 261.09375 581.78125 C 262.86391 581.78125 264.62469 581.29477 265 580.6875 C 266.6358 578.04072 274.05248 575.8492 281.4375 575.8125 C 289.71824 575.7713 291.79067 574.969 291.25 572.15625 L 290.90625 570.28125 L 270.5625 570.03125 L 250.21875 569.75 z M 335.375 641.84375 L 415.1875 641.84375 L 415.1875 655.875 L 335.375 655.875 L 335.375 641.84375 z M 335.375 673.84375 L 415.1875 673.84375 L 415.1875 687.875 L 335.375 687.875 L 335.375 673.84375 z M 335.375 705.875 L 415.1875 705.875 L 415.1875 719.90625 L 335.375 719.90625 L 335.375 705.875 z M 335.375 737.90625 L 415.1875 737.90625 L 415.1875 751.90625 L 335.375 751.90625 L 335.375 737.90625 z "
       id="path32729" />
  </g>
</svg>
