<svg version="1.1" xmlns="http://www.w3.org/2000/svg"><path d="M324.469 544.063c-4.351-.093-8.826 1.02-13.094 3.343-9.027 4.913-12.034 10.608-12.875 24.375l-.563 9.5-11 .563c-11.67.592-16.033 2.01-18.937 6.156-1.547 2.21-2.195 10.836-.906 12.125.366.367 25.996.656 56.969.656h56.312l.656-2.5c2.68-10.674-5.264-16.42-22.719-16.468l-8.593-.032-.563-9.312c-.665-11.144-3.087-17.095-9-22.157-4.681-4.007-10.093-6.13-15.687-6.25zm-.906 16.687c4.733 0 8.593 3.829 8.593 8.563 0 4.733-3.86 8.593-8.594 8.593-4.733 0-8.562-3.86-8.562-8.593a8.556 8.556 0 0 1 8.563-8.563zm-73.344 9l-3.281 2.031c-1.813 1.12-4.023 3.576-4.907 5.438l-1.594 3.375V743.28l1.75 3.438c.962 1.886 3.011 4.36 4.563 5.5l2.813 2.062 33.687.5 33.688.5.25 8c.148 4.4.47 8.59.718 9.282.358.995 12.348 1.204 57.25 1l56.781-.282v-152L420.5 621c-6.33-.157-12.025-.773-12.75-1.375-.999-.829-1.313-5.697-1.313-20.5v-19.438l-1.562-3c-.852-1.647-2.99-3.863-4.75-4.937l-3.188-1.938-20.156-.03h-20.125l-.625 1.624c-1.21 3.155 1.206 4.176 10.781 4.532l9.282.343 3.969 2.75c2.18 1.513 5.21 2.75 6.718 2.75 1.578 0 3.775 1.057 5.188 2.469l2.469 2.438v15.937c0 12.074-.33 16.19-1.344 17.031-.914.758-13.037 1.196-38.25 1.375l-36.906.25-.5 60-.5 60-29.907.282-29.906.25-1.844-1.657-1.844-1.687V584.907l2.22-1.563c1.222-.856 3.667-1.563 5.437-1.563 1.77 0 3.53-.486 3.906-1.093 1.636-2.647 9.052-4.839 16.438-4.875 8.28-.042 10.353-.844 9.812-3.657l-.344-1.875-20.344-.25-20.343-.281zm85.156 72.094h79.813v14.031h-79.813v-14.031zm0 32h79.813v14.031h-79.813v-14.031zm0 32.031h79.813v14.031h-79.813v-14.031zm0 32.031h79.813v14h-79.813v-14z" fill="#000"/></svg>