<?xml version="1.0" encoding="UTF-8" standalone="no"?>
<svg
   xmlns:dc="http://purl.org/dc/elements/1.1/"
   xmlns:cc="http://creativecommons.org/ns#"
   xmlns:rdf="http://www.w3.org/1999/02/22-rdf-syntax-ns#"
   xmlns:svg="http://www.w3.org/2000/svg"
   xmlns="http://www.w3.org/2000/svg"
   width="744.09448819"
   height="1052.3622047"
   id="svg2"
   version="1.1">
  <g id="layer1">
    <path
       style="fill:#000000"
       d="M 303.65625 339 C 302.31278 338.93351 300.28555 339.62682 297.09375 340.78125 C 286.46856 344.62421 287.4375 337.11978 287.4375 416.78125 C 287.4375 455.45113 287.17191 487.0625 286.875 487.0625 C 286.57809 487.0625 284.53509 486.13389 282.3125 485 C 262.32382 474.80254 230.36544 477.84419 209.75 491.875 C 169.85427 519.02792 181.92208 567.75356 230.0625 573.9375 C 258.80837 577.63008 289.62471 563.47655 301.875 540.96875 C 307.07175 531.42059 307.38735 527.32301 307.40625 467.3125 C 307.4158 436.925 307.62204 412.0625 307.875 412.0625 C 308.12796 412.0625 310.49046 414.39774 313.125 417.21875 C 317.105 421.48048 320.55876 423.59479 333.4375 429.8125 C 361.10739 443.17121 367.97158 451.56811 370.34375 474.875 C 371.38896 485.14434 371.29111 485.05568 378.03125 481.75 C 383.57566 479.03077 383.57235 479.03788 383.25 452.3125 C 382.76232 411.88113 379.34548 406.57851 341.25 387 C 318.46058 375.28778 308.38447 363.59119 306.78125 347.0625 C 306.22354 341.31269 305.89536 339.11081 303.65625 339 z M 137.875 366.59375 L 137.875 366.71875 L 138.4375 366.71875 L 138.4375 366.59375 L 137.875 366.59375 z M 432.8125 544.28125 L 432.8125 544.3125 L 433.25 544.3125 L 433.25 544.28125 L 432.8125 544.28125 z "
       id="path3063" />
  </g>
</svg>
