<svg version="1.1" xmlns="http://www.w3.org/2000/svg"><path d="M303.656 339c-1.343-.066-3.37.627-6.562 1.781-10.625 3.843-9.656-3.661-9.656 76 0 38.67-.266 70.281-.563 70.281-.297 0-2.34-.928-4.563-2.062-19.988-10.197-51.947-7.156-72.562 6.875-39.896 27.153-27.828 75.879 20.313 82.063 28.745 3.692 59.562-10.461 71.812-32.97 5.197-9.547 5.512-13.645 5.531-73.655.01-30.388.216-55.25.469-55.25s2.615 2.335 5.25 5.156c3.98 4.261 7.434 6.376 20.313 12.594 27.67 13.358 34.534 21.755 36.906 45.062 1.045 10.27.947 10.18 7.687 6.875 5.545-2.72 5.541-2.712 5.219-29.438-.488-40.43-3.905-45.733-42-65.312-22.79-11.712-32.866-23.409-34.469-39.938-.557-5.75-.886-7.951-3.125-8.062zm-165.781 27.594v.125h.563v-.125h-.563zM432.813 544.28v.032h.437v-.032h-.438z" fill="#000"/></svg>