<?xml version="1.0" encoding="UTF-8" standalone="no"?>
<svg
   width="256"
   height="256">
  <path
     style="fill:#000000"
     d="m 19.563115,245.30366 c -5.51415,-5.08276 -5.56961,-4.46134 2.15343,-24.12615 6.31291,-16.07426 18.51984,-40.91462 26.7229,-54.37947 5.0774,-8.33426 5.63225,-9.84303 6.73226,-18.30655 2.19616,-16.89743 5.90119,-24.99917 23.08652,-50.483016 37.438505,-55.516912 70.108915,-77.570797 114.911265,-77.569886 25.78265,5.24e-4 41.27488,7.507188 48.6244,23.560652 7.38896,16.139616 0.63073,23.344186 -18.86602,20.111987 -27.80792,-4.610038 -49.15531,17.32012 -86.46758,88.828113 -9.99587,19.15681 -12.12567,20.322 -43.332365,23.70666 -13.73318,1.4895 -12.40018,-0.20631 -21.48474,27.33228 l -6.63955,20.12687 -19.75281,12.70167 c -22.93871,14.75028 -19.96915,13.76803 -25.68771,8.49684 z m 22.26767,-18.43609 c 12.15008,-8.85452 11.68556,-8.23381 17.85559,-23.85909 C 82.245485,145.8787 120.37892,88.061813 158.54083,53.128012 172.88046,40.001364 168.958,40.608952 151.31179,54.247786 110.65121,85.674529 61.200545,154.95943 34.242785,218.27214 c -8.7618,20.57785 -8.79795,20.53689 7.588,8.59543 z"
     id="path3491"
     />
</svg>
