<svg version="1.1" xmlns="http://www.w3.org/2000/svg">
    <g id="Controls" stroke="none" stroke-width="1" fill="none" fill-rule="evenodd">
        <g id="Indicator" fill="#000000">
            <g id="7" transform="translate(15.158879, 27.380952)">
                <path d="M2.95666586,-0.149156118 C0.486484747,-1.38700301 -0.159803025,-0.620861235 1.52669605,1.57975571 L23.7087119,30.5238095 L25.4437424,22.6485183 C25.7992623,21.0348161 27.2920895,19.1256554 28.777172,18.3847341 L34.3718578,15.5934943 L2.95666586,-0.149156118 Z"></path>
            </g>
            <g id="6" transform="translate(3.000000, 64.390476)">
                <path d="M2.02166781,14.5749304 C-0.484412891,15.7354243 -0.27972718,16.6761905 2.4928185,16.6761905 L39.3531662,16.6761905 L34.2118436,10.5041864 C33.1512975,9.23103245 32.6025766,6.89439024 32.9877149,5.27896826 L34.339387,-0.39047619 L2.02166781,14.5749304 Z"></path>
            </g>
            <g id="5" transform="translate(36.887850, 86.333333)">
                <path d="M0.576462854,36.1806935 C-0.0268836898,38.8738821 0.861909712,39.2967866 2.56742602,37.1178831 L25.8017643,7.43456691 L17.9233506,7.43456691 C16.2654506,7.43456691 14.0917615,6.37924678 13.0672902,5.07618441 L8.76938656,-0.39047619 L0.576462854,36.1806935 Z"></path>
            </g>
            <g id="4" transform="translate(65.794393, 85.333333)">
                <path d="M24.2590002,38.0633557 C25.9539966,40.2388791 26.8414389,39.8202308 26.2409849,37.1275025 L17.9711653,0.0416028768 L13.6289576,5.59027256 C12.6076412,6.89535697 10.4333303,7.95333693 8.77935214,7.95333693 L0.799644936,7.95333693 L24.2590002,38.0633557 Z"></path>
            </g>
            <g id="3" transform="translate(86.130841, 64.390476)">
                <path d="M37.344355,16.6761905 C40.110645,16.6761905 40.3193331,15.7343023 37.8158842,14.5749304 L5.50086062,-0.39047619 L6.85190696,5.27681664 C7.23620753,6.88885897 6.68865379,9.22707647 5.62687788,10.501813 L0.484007298,16.6761905 L37.344355,16.6761905 Z"></path>
            </g>
            <g id="2" transform="translate(78.953271, 27.380952)">
                <path d="M34.4634651,1.53075637 C36.1781184,-0.634880572 35.5479809,-1.41060209 33.0764466,-0.211777092 L0.484007298,15.5972812 L6.35312297,18.4315767 C7.84393704,19.1515161 9.34868314,21.0365076 9.71700085,22.654711 L11.5080788,30.5238095 L34.4634651,1.53075637 Z"></path>
            </g>
            <g id="1" transform="translate(55.028037, 2.000000)">
                <path d="M8.36995584,2.26300981 C8.97017277,-0.428016203 9.94544571,-0.418470928 10.5433459,2.2621683 L18.4279325,37.6120999 L12.1528105,34.5333309 C10.667297,33.804492 8.25209657,33.8077827 6.7690413,34.5354155 L0.484007298,37.6190476 L8.36995584,2.26300981 Z"></path>
            </g>
        </g>
    </g>
</svg>