<svg version="1.1" xmlns="http://www.w3.org/2000/svg">
  <path
     style="fill:#000000"
     d="m 351.6073,621.42892 c -22.54805,-4.82601 -28.85899,-29.89181 -8.58566,-34.10054 14.93492,-3.10048 23.46192,10.41568 12.44041,19.71931 -4.72802,3.99107 -2.51596,5.72065 6.51139,5.09119 17.70646,-1.23464 26.91828,-11.29554 26.02901,-28.42817 l -0.30186,-5.81568 -13.20288,-0.6517 c -44.96591,-2.21954 -64.45358,-15.41801 -68.28457,-46.24728 -2.55649,-20.57297 6.54456,-35.44396 31.85265,-52.04676 l 10.3652,-6.79986 -0.56822,-3.6272 c -0.31251,-1.99496 -1.26264,-7.6772 -2.11139,-12.6272 -3.8279,-22.32475 -0.38783,-38.42767 10.54487,-49.36036 17.02427,-17.02427 39.47643,-14.90795 49.26615,4.64379 13.25975,26.48195 5.2189,43.49101 -30.57181,64.66952 -12.55159,7.42718 -12.41107,7.23257 -9.72697,13.47194 2.47736,5.75878 2.18975,5.65968 9.78306,3.37093 22.50963,-6.78475 48.72243,2.07874 57.52592,19.4516 12.56661,24.79902 0.53504,51.44379 -27.87201,61.72454 l -6,2.17145 0.24964,6.42829 c 1.11773,28.78191 -18.7012,45.09245 -47.34293,38.96219 z m 33.63614,-55.58553 c 2.84601,-3.42922 -16.41067,-51.94836 -20.6177,-51.94836 -7.62925,0 -4.68312,18.67379 4.74644,30.08486 6.80947,8.2404 1.00488,10.4665 -7.22315,2.77014 -12.83163,-12.00249 -15.08454,-28.62609 -5.68953,-41.98159 l 2.90287,-4.12658 -2.20403,-5.12342 c -2.98256,-6.93312 -4.75671,-6.74778 -13.72054,1.43333 -24.12383,22.01737 -18.56913,53.48753 11.53537,65.35362 11.58138,4.56495 27.84078,6.46536 30.27027,3.538 z m 18.56899,-6.65821 c 8.08749,-7.45479 9.89185,-12.26275 9.86633,-26.29015 -0.0415,-22.79309 -10.62407,-34.21261 -29.70469,-32.05388 -12.8426,1.45297 -12.94264,1.92848 -4.39684,20.89878 5.89643,13.08911 10.64877,25.32007 13.65951,35.1551 2.40918,7.86993 4.12034,8.24048 10.57569,2.29015 z m -34.54194,-99.88949 c 21.26879,-13.96583 29.19582,-27.55242 24.43614,-41.88249 -3.55868,-10.71417 -9.42114,-14.3476 -18.76624,-11.6309 -16.07497,4.67311 -23.46576,22.54333 -19.77182,47.80634 2.0374,13.93384 1.75022,13.81761 14.10192,5.70705 z"
     id="path5625" />
</svg>
