<svg version="1.1" xmlns="http://www.w3.org/2000/svg"><path d="M351.607 621.429c-22.548-4.826-28.859-29.892-8.585-34.1 14.935-3.101 23.462 10.415 12.44 19.719-4.728 3.99-2.516 5.72 6.511 5.09 17.707-1.234 26.919-11.295 26.03-28.427l-.302-5.816-13.203-.652c-44.966-2.22-64.454-15.418-68.285-46.247-2.556-20.573 6.545-35.444 31.853-52.047l10.365-6.8-.568-3.627c-.313-1.995-1.263-7.677-2.112-12.627-3.828-22.325-.387-38.428 10.545-49.36 17.025-17.025 39.477-14.908 49.266 4.643 13.26 26.482 5.22 43.491-30.571 64.67-12.552 7.427-12.411 7.233-9.727 13.472 2.477 5.759 2.19 5.66 9.783 3.37 22.51-6.784 48.722 2.08 57.526 19.452 12.566 24.8.535 51.444-27.872 61.725l-6 2.171.25 6.429c1.117 28.782-18.702 45.092-47.344 38.962zm33.636-55.586c2.846-3.429-16.41-51.948-20.617-51.948-7.63 0-4.683 18.674 4.746 30.085 6.81 8.24 1.005 10.466-7.223 2.77-12.832-12.002-15.085-28.626-5.69-41.982l2.903-4.126-2.204-5.124c-2.982-6.933-4.756-6.747-13.72 1.434-24.124 22.017-18.57 53.487 11.535 65.353 11.582 4.565 27.841 6.466 30.27 3.538zm18.57-6.658c8.087-7.455 9.891-12.263 9.866-26.29-.042-22.793-10.624-34.213-29.705-32.054-12.843 1.453-12.943 1.929-4.397 20.899 5.897 13.089 10.649 25.32 13.66 35.155 2.409 7.87 4.12 8.24 10.575 2.29zm-34.543-99.89c21.27-13.965 29.196-27.552 24.437-41.882-3.559-10.714-9.422-14.347-18.767-11.63-16.075 4.672-23.465 22.543-19.771 47.806 2.037 13.933 1.75 13.817 14.101 5.707z" fill="#000"/></svg>