<svg version="1.1" xmlns="http://www.w3.org/2000/svg" width="11" height="20" viewBox="0 0 11 20">
<path d="M8.214 6.429c0 0.19-0.167 0.357-0.357 0.357s-0.357-0.167-0.357-0.357c0-0.77-1.194-1.071-1.786-1.071-0.19 0-0.357-0.167-0.357-0.357s0.167-0.357 0.357-0.357c1.038 0 2.5 0.547 2.5 1.786zM10 6.429c0-2.232-2.266-3.571-4.286-3.571s-4.286 1.339-4.286 3.571c0 0.714 0.29 1.462 0.759 2.009 0.212 0.246 0.458 0.48 0.681 0.737 0.792 0.949 1.462 2.065 1.574 3.326h2.545c0.112-1.261 0.781-2.377 1.574-3.326 0.223-0.257 0.469-0.491 0.681-0.737 0.469-0.547 0.759-1.295 0.759-2.009zM11.429 6.429c0 1.15-0.379 2.143-1.15 2.991s-1.786 2.042-1.875 3.237c0.324 0.19 0.525 0.547 0.525 0.915 0 0.268-0.1 0.525-0.279 0.714 0.179 0.19 0.279 0.446 0.279 0.714 0 0.368-0.19 0.703-0.502 0.904 0.089 0.156 0.145 0.346 0.145 0.525 0 0.725-0.569 1.071-1.217 1.071-0.29 0.647-0.938 1.071-1.641 1.071s-1.35-0.424-1.641-1.071c-0.647 0-1.217-0.346-1.217-1.071 0-0.179 0.056-0.368 0.145-0.525-0.313-0.201-0.502-0.536-0.502-0.904 0-0.268 0.1-0.525 0.279-0.714-0.179-0.19-0.279-0.446-0.279-0.714 0-0.368 0.201-0.725 0.525-0.915-0.089-1.194-1.105-2.388-1.875-3.237s-1.15-1.842-1.15-2.991c0-3.036 2.891-5 5.714-5s5.714 1.964 5.714 5z"></path>
</svg>
