<svg version="1.1" xmlns="http://www.w3.org/2000/svg" width="11" height="20" viewBox="0 0 11 20"><path d="M8.214 6.429c0 .19-.167.357-.357.357S7.5 6.619 7.5 6.429c0-.77-1.194-1.071-1.786-1.071-.19 0-.357-.167-.357-.357s.167-.357.357-.357c1.038 0 2.5.547 2.5 1.786zm1.786 0c0-2.232-2.266-3.571-4.286-3.571S1.428 4.197 1.428 6.429c0 .714.29 1.462.759 2.009.212.246.458.48.681.737.792.949 1.462 2.065 1.574 3.326h2.545c.112-1.261.781-2.377 1.574-3.326.223-.257.469-.491.681-.737a3.182 3.182 0 0 0 .759-2.009zm1.429 0c0 1.15-.379 2.143-1.15 2.991s-1.786 2.042-1.875 3.237c.324.19.525.547.525.915 0 .268-.1.525-.279.714.179.19.279.446.279.714 0 .368-.19.703-.502.904.089.156.145.346.145.525 0 .725-.569 1.071-1.217 1.071-.29.647-.938 1.071-1.641 1.071s-1.35-.424-1.641-1.071c-.647 0-1.217-.346-1.217-1.071 0-.179.056-.368.145-.525A1.071 1.071 0 0 1 2.499 15c0-.268.1-.525.279-.714a1.04 1.04 0 0 1-.279-.714c0-.368.201-.725.525-.915-.089-1.194-1.105-2.388-1.875-3.237s-1.15-1.842-1.15-2.991c0-3.036 2.891-5 5.714-5s5.714 1.964 5.714 5z"/></svg>