<svg version="1.1" xmlns="http://www.w3.org/2000/svg"><path d="M264.566 444.154c-1.913-1.548-2.512-4.275-4.943-22.499-1.522-11.405-3.017-20.986-3.323-21.292-.539-.539-1.337 3.562-3.862 19.853-1.472 9.497-3.613 12.7-8.49 12.7-5.05 0-7.013-2.594-8.433-11.141a3482.716 3482.716 0 0 0-2.858-16.859l-1.637-9.5-9.5-.249c-13.312-.348-14-.578-14-4.663 0-3.724 1.21-4.588 6.43-4.588h3.267l3.348-19.615c3.62-21.209 4.897-24.385 9.805-24.385 6.374 0 7.73 2.67 10.673 21 .926 5.775 2.006 10.845 2.398 11.267.392.422 1.935-7.228 3.429-17 2.976-19.465 3.93-21.6 9.65-21.6 6.54 0 7.185 1.837 11.085 31.583 1.208 9.213 2.506 16.75 2.885 16.75.38 0 1.525-5.445 2.545-12.101 2.128-13.87 3.72-16.899 8.883-16.899 5.243 0 7.096 3.006 10.675 17.311 3.518 14.063 3.701 14.183 6.86 4.515 2.46-7.53 3.9-9.16 8.107-9.16 3.448 0 6.469 2.47 8.96 7.326l1.792 3.493 1.05-3.992c.578-2.196 2.443-9.618 4.144-16.493 3.311-13.379 4.941-16 9.95-16 5.252 0 6.875 3.3 9.769 19.865 1.458 8.348 2.96 14.831 3.335 14.407.377-.425 1.715-7.21 2.974-15.08 2.513-15.709 4.117-19.192 8.836-19.192 6.72 0 7.72 2.272 11.211 25.48 2.586 17.19 2.917 17.078 5.876-1.98 1.77-11.396 2.337-13.277 4.597-15.25 6.57-5.735 10.419-1.729 15.613 16.25 4.93 17.067 4.536 16.43 7.487 12.088 4.546-6.69 9.144-6.196 15.346 1.652 4.018 5.085 4.927 5.723 8.188 5.74 5.62.03 6.832.833 6.832 4.52 0 4.2-.873 4.5-13.05 4.5h-9.887l-4.103 5.554c-7.86 10.639-12.926 9.803-17.92-2.956-1.855-4.74-2.756-2.134-6.016 17.402-3.245 19.445-4.485 22.701-9.299 24.416-3.643 1.298-7.39-1.391-8.59-6.163-.518-2.064-1.943-10.408-3.167-18.542-1.223-8.133-2.46-14.553-2.748-14.265-.288.288-1.561 6.67-2.83 14.18-2.592 15.35-4.224 18.374-9.91 18.374-5.42 0-6.517-2.356-9.588-20.62-1.537-9.138-3.022-16.843-3.3-17.121-1.303-1.303-3.59 1.02-4.564 4.636-2.765 10.268-11.9 10.367-16.495.178-2.517-5.581-2.979-5.264-6.072 4.177-1.486 4.538-3.355 9.671-4.152 11.408-3.312 7.216-12.237 6.175-14.272-1.664l-2.103-8.095c-1.54-5.923-1.863-4.967-5.467 16.147-2.696 15.79-3.657 19.528-5.539 21.53-2.703 2.877-6.807 3.152-9.882.662z" fill="#000"/></svg>