<?xml version="1.0" encoding="UTF-8" standalone="no"?>
<svg
   xmlns:dc="http://purl.org/dc/elements/1.1/"
   xmlns:cc="http://creativecommons.org/ns#"
   xmlns:rdf="http://www.w3.org/1999/02/22-rdf-syntax-ns#"
   xmlns:svg="http://www.w3.org/2000/svg"
   xmlns="http://www.w3.org/2000/svg"
   width="744.09448819"
   height="1052.3622047"
   id="svg2"
   version="1.1">
  <g id="layer1">
    <path
       style="fill:#000000"
       d="m 408.94679,580.3177 c -1.14391,-0.72081 -1.6187,-3.74392 -2,-12.73469 l -0.5,-11.78949 -28,-0.5 C 344.8738,554.694 339.30854,552.60509 332.33737,537.98639 l -1.62675,-3.41134 7.70922,-12.64077 c 8.86063,-14.52872 8.4746,-14.30829 12.94319,-7.39076 9.16472,14.1873 12.78959,15.75 36.5341,15.75 l 19.04966,0 0,-10.56574 c 0,-19.77278 0.98434,-19.58446 32.76698,6.26906 22.76073,18.51466 22.79803,15.75965 -0.46774,34.54607 -23.63947,19.08818 -27.44615,21.5726 -30.29924,19.77479 z m -180.5671,-26.33845 c -0.27738,-0.72284 -0.37576,-6.23534 -0.21862,-12.25 l 0.28572,-10.93573 28.18611,-0.5 28.18611,-0.5 3.14925,-3 c 1.73209,-1.65 6.78803,-8.85 11.23543,-16 4.44739,-7.15 11.45293,-18.175 15.56786,-24.5 4.11493,-6.325 10.3879,-16.225 13.93994,-22 13.7143,-22.29709 13.84853,-22.35917 49.7353,-23 l 28,-0.5 0.5,-11.70447 c 0.78225,-18.31175 0.8327,-18.30297 30.2356,5.26474 25.43035,20.38354 25.0558,17.85947 5.06559,34.13645 -34.6818,28.23958 -35.30119,28.39068 -35.30119,8.61215 l 0,-10.80887 -19.03984,0 c -28.80565,0 -25.433,-3.25615 -68.3437,65.98284 -8.34158,13.45965 -13.78204,19.20411 -20.28698,21.42056 -6.34961,2.16353 -70.07731,2.41731 -70.89658,0.28233 z m 67.26276,-73.91165 c -2.49775,-4.00074 -5.95483,-8.62408 -7.6824,-10.27408 l -3.14104,-3 -28.18611,-0.5 -28.18611,-0.5 0,-12 0,-12 32.95005,-0.26392 c 41.25097,-0.33041 46.13305,1.12382 53.93245,16.06493 l 1.8825,3.60626 -7.2762,12.04318 c -9.59987,15.8892 -8.85525,15.53371 -14.29314,6.82363 z"
       id="path6223" />
  </g>
</svg>
