<?xml version="1.0" encoding="iso-8859-1"?>
<svg version="1.1" id="Layer_1" xmlns="http://www.w3.org/2000/svg" xmlns:xlink="http://www.w3.org/1999/xlink" x="0px" y="0px"
	 viewBox="0 0 496.158 496.158" style="enable-background:new 0 0 496.158 496.158;" xml:space="preserve">
<path fill="#000000" d="M219.274,165.326v6.347c5.532,0,9.765,0.652,12.694,1.954c1.87,0.814,2.807,2.317,2.807,4.516
	c0,1.221-0.286,2.645-0.854,4.271l-40.034,109.849l-36.616-109.849c-0.408-1.465-0.61-2.764-0.61-3.906
	c0-2.358,0.935-3.985,2.807-4.881c2.766-1.302,6.915-1.954,12.45-1.954v-6.347h-53.704v6.347c4.229,0,7.403,0.652,9.52,1.954
	c2.115,1.303,3.824,4.232,5.127,8.787l50.286,148.418h7.323l55.657-148.418c1.953-4.555,3.823-7.484,5.614-8.787
	c1.789-1.302,4.801-1.954,9.032-1.954v-6.347H219.274z"/>
<path fill="#000000" d="M307.886,173.627c2.114-1.302,5.938-1.954,11.473-1.954v-6.347h-53.704v6.347
	c5.532,0,9.356,0.652,11.474,1.954c2.114,1.303,3.173,4.232,3.173,8.787v132.307c0,3.582-1.059,6.104-3.173,7.568
	c-2.117,1.465-5.941,2.197-11.474,2.197v6.346h53.704v-6.346c-5.534,0-9.358-0.732-11.473-2.197
	c-2.117-1.465-3.174-3.986-3.174-7.568V182.414C304.712,177.859,305.769,174.93,307.886,173.627z"/>
<path fill="#000000" d="M366.472,173.627c2.115-1.302,5.938-1.954,11.473-1.954v-6.347h-53.704v6.347
	c5.533,0,9.356,0.652,11.474,1.954c2.114,1.303,3.174,4.232,3.174,8.787v132.307c0,3.582-1.06,6.104-3.174,7.568
	c-2.117,1.465-5.94,2.197-11.474,2.197v6.346h53.704v-6.346c-5.534,0-9.357-0.732-11.473-2.197
	c-2.117-1.465-3.173-3.986-3.173-7.568V182.414C363.299,177.859,364.355,174.93,366.472,173.627z"/>
</svg>
