<?xml version="1.0" encoding="iso-8859-1"?>
<svg version="1.1" id="Layer_1" xmlns="http://www.w3.org/2000/svg" xmlns:xlink="http://www.w3.org/1999/xlink" x="0px" y="0px"
	 viewBox="0 0 496.158 496.158" style="enable-background:new 0 0 496.158 496.158;" xml:space="preserve">
<path fill="#000000" d="M277.859,165.326v6.348c5.532,0,9.765,0.651,12.694,1.952c1.87,0.815,2.808,2.319,2.808,4.517
	c0,1.221-0.286,2.645-0.855,4.271l-40.032,109.85l-36.617-109.85c-0.41-1.465-0.61-2.766-0.61-3.905
	c0-2.359,0.933-3.986,2.808-4.883c2.764-1.301,6.915-1.952,12.449-1.952v-6.348h-53.703v6.348c4.229,0,7.402,0.651,9.52,1.952
	c2.115,1.303,3.824,4.232,5.127,8.788l50.286,148.419h7.322l55.657-148.419c1.953-4.556,3.824-7.485,5.613-8.788
	c1.791-1.301,4.803-1.952,9.033-1.952v-6.348H277.859z"/>
</svg>
