<?xml version="1.0" encoding="iso-8859-1"?>
<svg version="1.1" id="Layer_1" xmlns="http://www.w3.org/2000/svg" xmlns:xlink="http://www.w3.org/1999/xlink" x="0px" y="0px"
	 viewBox="0 0 496.158 496.158" style="enable-background:new 0 0 496.158 496.158;" xml:space="preserve">
<path fill="#000000" d="M248.567,165.326v6.347c5.532,0,9.765,0.652,12.693,1.954c1.871,0.814,2.808,2.317,2.808,4.516
	c0,1.221-0.285,2.645-0.854,4.271l-40.035,109.849l-36.615-109.849c-0.408-1.465-0.611-2.764-0.611-3.906
	c0-2.358,0.936-3.985,2.808-4.881c2.766-1.302,6.915-1.954,12.45-1.954v-6.347h-53.704v6.347c4.229,0,7.403,0.652,9.52,1.954
	c2.115,1.303,3.823,4.232,5.126,8.787l50.287,148.418h7.323l55.657-148.418c1.953-4.555,3.823-7.484,5.614-8.787
	c1.789-1.302,4.8-1.954,9.032-1.954v-6.347H248.567z"/>
<path fill="#000000" d="M337.178,173.627c2.115-1.302,5.939-1.954,11.474-1.954v-6.347h-53.704v6.347
	c5.532,0,9.356,0.652,11.474,1.954c2.114,1.303,3.174,4.232,3.174,8.787v132.307c0,3.582-1.06,6.104-3.174,7.568
	c-2.117,1.465-5.941,2.197-11.474,2.197v6.346h53.704v-6.346c-5.534,0-9.358-0.732-11.474-2.197s-3.173-3.986-3.173-7.568V182.414
	C334.005,177.859,335.062,174.93,337.178,173.627z"/>
</svg>
