<?xml version="1.0" encoding="iso-8859-1"?>
<svg version="1.1" id="Layer_1" xmlns="http://www.w3.org/2000/svg" xmlns:xlink="http://www.w3.org/1999/xlink" x="0px" y="0px"
	 viewBox="0 0 496.158 496.158" style="enable-background:new 0 0 496.158 496.158;" xml:space="preserve">
<path fill="#000000" d="M317.162,173.625c2.115-1.301,5.939-1.952,11.473-1.952v-6.348H167.523v6.348
	c5.533,0,9.355,0.651,11.475,1.952c2.113,1.303,3.172,4.232,3.172,8.788v132.308c0,3.581-1.059,6.103-3.172,7.567
	c-2.119,1.465-5.941,2.197-11.475,2.197v6.347h161.111v-6.347c-5.533,0-9.357-0.732-11.473-2.197s-3.174-3.986-3.174-7.567V182.413
	C313.988,177.858,315.047,174.928,317.162,173.625z M235.873,314.721c0,3.581-1.057,6.103-3.172,7.567
	c-2.119,1.465-5.941,2.197-11.475,2.197s-9.357-0.732-11.473-2.197s-3.174-3.986-3.174-7.567V182.413
	c0-4.556,1.059-7.485,3.174-8.788c2.115-1.301,5.939-1.952,11.473-1.952s9.355,0.651,11.475,1.952
	c2.115,1.303,3.172,4.232,3.172,8.788V314.721z M289.578,314.721c0,3.581-1.059,6.103-3.172,7.567
	c-2.119,1.465-5.941,2.197-11.475,2.197c-5.535,0-9.357-0.732-11.473-2.197c-2.117-1.465-3.174-3.986-3.174-7.567V182.413
	c0-4.556,1.057-7.485,3.174-8.788c2.115-1.301,5.938-1.952,11.473-1.952c5.533,0,9.355,0.651,11.475,1.952
	c2.113,1.303,3.172,4.232,3.172,8.788V314.721z"/>
</svg>
