<?xml version="1.0" encoding="iso-8859-1"?>
<svg version="1.1" id="Layer_1" xmlns="http://www.w3.org/2000/svg" xmlns:xlink="http://www.w3.org/1999/xlink" x="0px" y="0px"
	 viewBox="0 0 496.158 496.158" style="enable-background:new 0 0 496.158 496.158;" xml:space="preserve">
<path fill="#000000" d="M263.459,173.627c2.115-1.302,5.938-1.954,11.473-1.954v-6.347h-53.705v6.347
	c5.534,0,9.356,0.652,11.474,1.954c2.115,1.302,3.173,4.231,3.173,8.788v132.307c0,3.582-1.058,6.103-3.173,7.567
	c-2.117,1.464-5.939,2.197-11.474,2.197v6.347h53.705v-6.347c-5.534,0-9.357-0.732-11.473-2.197
	c-2.118-1.464-3.174-3.986-3.174-7.567V182.414C260.285,177.858,261.341,174.928,263.459,173.627z"/>
</svg>
