<?xml version="1.0" encoding="iso-8859-1"?>
<svg version="1.1" id="Layer_1" xmlns="http://www.w3.org/2000/svg" xmlns:xlink="http://www.w3.org/1999/xlink" x="0px" y="0px"
	 viewBox="0 0 496.158 496.158" style="enable-background:new 0 0 496.158 496.158;" xml:space="preserve">
<path fill="#000000" d="M189.736,173.625c2.115-1.301,5.939-1.952,11.473-1.952v-6.348h-53.703v6.348
	c5.533,0,9.357,0.651,11.475,1.952c2.113,1.303,3.172,4.232,3.172,8.788v132.308c0,3.582-1.059,6.103-3.172,7.567
	c-2.117,1.465-5.941,2.197-11.475,2.197v6.347h53.703v-6.347c-5.533,0-9.357-0.732-11.473-2.197
	c-2.117-1.465-3.174-3.985-3.174-7.567V182.413C186.562,177.858,187.619,174.928,189.736,173.625z"/>
<path fill="#000000" d="M307.152,165.326v6.348c5.533,0,9.766,0.651,12.695,1.952c1.869,0.815,2.807,2.319,2.807,4.517
	c0,1.221-0.285,2.646-0.855,4.271l-40.033,109.85l-36.615-109.85c-0.41-1.465-0.611-2.765-0.611-3.905
	c0-2.359,0.934-3.986,2.809-4.883c2.764-1.301,6.914-1.952,12.449-1.952v-6.348h-53.703v6.348c4.229,0,7.402,0.651,9.52,1.952
	c2.115,1.303,3.822,4.232,5.125,8.788l50.287,148.419h7.322l55.658-148.419c1.953-4.556,3.824-7.485,5.613-8.788
	c1.791-1.301,4.801-1.952,9.033-1.952v-6.348H307.152z"/>
</svg>
