<?xml version="1.0" encoding="UTF-8" standalone="no"?>
<svg width="22px" height="22px" viewBox="0 0 22 22" version="1.1" xmlns="http://www.w3.org/2000/svg" xmlns:xlink="http://www.w3.org/1999/xlink">
    <g id="Page-1" stroke="none" stroke-width="1" fill="none" fill-rule="evenodd">
        <path d="M17.288,0.25500663 C15.8990003,0.25591143 14.608,0.94052362 13.816,2.09211164 C13.8,2.11224429 13.785,2.13137032 13.771,2.15250961 C13.198,3.01821389 12.807,3.81144059 12.431,4.5805081 C12.091,5.2730715 11.764,5.9364426 11.332,6.5706213 C10.899,5.9334227 10.572,5.269045 10.231,4.5764816 C9.854,3.81043396 9.464,3.01720725 8.892,2.15250961 C8.879,2.13137032 8.864,2.11224429 8.848,2.09311827 C8.057,0.94052362 6.765,0.254 5.377,0.254 C3.048,0.254 1.154,2.15955604 1.154,4.5029974 C1.154,6.8474454 3.049,8.7550147 5.377,8.7550147 C6.41,8.7550147 7.397,8.3694743 8.16,7.693017 L9.029,9.3006097 C6.868,11.8181985 5.057,14.7414604 5.004,14.8320574 C3.356,17.1161074 5.944,20.7641449 6.056,20.9171531 C6.181,21.0933139 6.383,21.1949838 6.596,21.1949838 C6.868,21.1788777 7.072,21.0470087 7.181,20.8446755 L11.33,13.1711131 L15.481,20.8446755 C15.59,21.0460021 15.794,21.1788777 16.024,21.1939771 C16.256,21.219143 16.472,21.1053935 16.607,20.9171531 C16.718,20.7641449 19.306,17.1161074 17.686,14.8723227 L17.255,14.1727128 C15.82,11.8423577 15.672,11.6007658 13.635,9.2955765 L14.503,7.6920103 C15.266,8.3684676 16.254,8.754008 17.287,8.754008 C19.615,8.754008 21.5100007,6.8464387 21.51,4.5019907 C21.509999,1.31618922 18.8333327,0.254 17.288,0.25500663 L17.288,0.25500663 Z M5.333,6 C4.597,6 4,5.404 4,4.667 C4,3.93 4.597,3.334 5.333,3.334 C6.069,3.334 6.666,3.93 6.666,4.667 C6.666,5.404 6.069,6 5.333,6 L5.333,6 L5.333,6 Z M11.333,10.527 C10.964,10.527 10.666,10.227 10.666,9.86 C10.666,9.491 10.963,9.193 11.333,9.193 C11.703,9.193 12,9.49 12,9.86 C12,10.227 11.703,10.527 11.333,10.527 L11.333,10.527 L11.333,10.527 Z M16,4.667 C16,3.93 16.597,3.334 17.333,3.334 C18.069,3.334 18.666,3.93 18.666,4.667 C18.666,5.404 18.069,6 17.333,6 C16.597,6 16,5.404 16,4.667 Z" id="Shape" fill="#000000" transform="translate(11.154000, 10.754000) rotate(-180.000000) translate(-11.154000, -10.754000) "></path>
    </g>
</svg>