<!-- Generated by IcoMoon.io -->
<svg version="1.1" xmlns="http://www.w3.org/2000/svg" width="20" height="20" viewBox="0 0 20 20">
<path d="M16.563 16.875h-1.875c-0.172 0-0.313-0.14-0.313-0.313s0.14-0.313 0.313-0.313h1.563v-1.563c0-0.172 0.14-0.313 0.313-0.313s0.313 0.14 0.313 0.313v1.875c0 0.172-0.141 0.313-0.313 0.313zM16.563 13.125c-0.172 0-0.313-0.14-0.313-0.313v-1.875c0-0.172 0.14-0.313 0.313-0.313s0.313 0.14 0.313 0.313v1.875c0 0.172-0.141 0.313-0.313 0.313zM16.563 9.375c-0.172 0-0.313-0.14-0.313-0.313v-1.875c0-0.172 0.14-0.313 0.313-0.313s0.313 0.14 0.313 0.313v1.875c0 0.172-0.141 0.313-0.313 0.313zM16.563 5.625c-0.172 0-0.313-0.14-0.313-0.313v-1.563h-1.563c-0.172 0-0.313-0.14-0.313-0.313s0.14-0.313 0.313-0.313h1.875c0.172 0 0.313 0.14 0.313 0.313v1.875c0 0.172-0.141 0.313-0.313 0.313zM9.166 13.158c-0.115 0.116-0.302 0.116-0.417 0l-0.626-0.626c-0.001-0.002-0.001-0.004-0.002-0.006l-1.993-2.008c-0.116-0.115-0.116-0.302 0-0.417l0.626-0.627c0.116-0.116 0.302-0.116 0.418 0l1.788 1.801 3.759-3.758c0.115-0.116 0.302-0.116 0.418 0l0.626 0.627c0.116 0.116 0.116 0.303 0 0.418l-4.596 4.596zM12.813 3.75h-1.875c-0.172 0-0.313-0.14-0.313-0.313s0.14-0.313 0.313-0.313h1.875c0.172 0 0.313 0.14 0.313 0.313s-0.141 0.313-0.313 0.313zM9.063 3.75h-1.875c-0.172 0-0.313-0.14-0.313-0.313s0.14-0.313 0.313-0.313h1.875c0.172 0 0.313 0.14 0.313 0.313s-0.141 0.313-0.313 0.313zM5.313 16.875h-1.875c-0.172 0-0.313-0.14-0.313-0.313v-1.875c0-0.172 0.14-0.313 0.313-0.313s0.313 0.14 0.313 0.313v1.563h1.563c0.172 0 0.313 0.14 0.313 0.313s-0.14 0.313-0.313 0.313zM5.313 3.75h-1.563v1.563c0 0.172-0.14 0.313-0.313 0.313s-0.313-0.14-0.313-0.313v-1.875c0-0.172 0.14-0.313 0.313-0.313h1.875c0.172 0 0.313 0.14 0.313 0.313s-0.14 0.313-0.313 0.313zM3.438 6.875c0.172 0 0.313 0.14 0.313 0.313v1.875c0 0.172-0.14 0.313-0.313 0.313s-0.313-0.14-0.313-0.313v-1.875c0-0.172 0.14-0.313 0.313-0.313zM3.438 10.625c0.172 0 0.313 0.14 0.313 0.313v1.875c0 0.172-0.14 0.313-0.313 0.313s-0.313-0.14-0.313-0.313v-1.875c0-0.172 0.14-0.313 0.313-0.313zM7.188 16.25h1.875c0.172 0 0.313 0.14 0.313 0.313s-0.141 0.313-0.313 0.313h-1.875c-0.172 0-0.313-0.14-0.313-0.313s0.14-0.313 0.313-0.313zM10.938 16.25h1.875c0.172 0 0.313 0.14 0.313 0.313s-0.141 0.313-0.313 0.313h-1.875c-0.172 0-0.313-0.14-0.313-0.313s0.14-0.313 0.313-0.313z"></path>
</svg>
