<svg version="1.1" xmlns="http://www.w3.org/2000/svg" xmlns:xlink="http://www.w3.org/1999/xlink" width="32" height="32" viewBox="0 0 32 32">
	<path d="M24 1.333h2.667q1.656 0 2.828 1.172t1.172 2.828v2.667q0 0.552-0.391 0.943t-0.943 0.391-0.943-0.391-0.391-0.943v-2.667q0-0.552-0.391-0.943t-0.943-0.391h-2.667q-0.552 0-0.943-0.391t-0.391-0.943 0.391-0.943 0.943-0.391zM2.667 22.667q0.552 0 0.943 0.391t0.391 0.943v2.667q0 0.552 0.391 0.943t0.943 0.391h2.667q0.552 0 0.943 0.391t0.391 0.943-0.391 0.943-0.943 0.391h-2.667q-1.656 0-2.828-1.172t-1.172-2.828v-2.667q0-0.552 0.391-0.943t0.943-0.391zM2.667 12q0.552 0 0.943 0.391t0.391 0.943v5.333q0 0.552-0.391 0.943t-0.943 0.391-0.943-0.391-0.391-0.943v-5.333q0-0.552 0.391-0.943t0.943-0.391zM13.333 28h5.333q0.552 0 0.943 0.391t0.391 0.943-0.391 0.943-0.943 0.391h-5.333q-0.552 0-0.943-0.391t-0.391-0.943 0.391-0.943 0.943-0.391zM5.333 1.333h2.667q0.552 0 0.943 0.391t0.391 0.943-0.391 0.943-0.943 0.391h-2.667q-0.552 0-0.943 0.391t-0.391 0.943v2.667q0 0.552-0.391 0.943t-0.943 0.391-0.943-0.391-0.391-0.943v-2.667q0-1.656 1.172-2.828t2.828-1.172zM29.333 22.667q0.552 0 0.943 0.391t0.391 0.943v2.667q0 1.656-1.172 2.828t-2.828 1.172h-2.667q-0.552 0-0.943-0.391t-0.391-0.943 0.391-0.943 0.943-0.391h2.667q0.552 0 0.943-0.391t0.391-0.943v-2.667q0-0.552 0.391-0.943t0.943-0.391zM29.333 12q0.552 0 0.943 0.391t0.391 0.943v5.333q0 0.552-0.391 0.943t-0.943 0.391-0.943-0.391-0.391-0.943v-5.333q0-0.552 0.391-0.943t0.943-0.391zM13.333 1.333h5.333q0.552 0 0.943 0.391t0.391 0.943-0.391 0.943-0.943 0.391h-5.333q-0.552 0-0.943-0.391t-0.391-0.943 0.391-0.943 0.943-0.391z" fill="#000000"></path>
</svg>
