<svg version="1.1" xmlns="http://www.w3.org/2000/svg" width="20" height="20" viewBox="0 0 20 20"><path d="M16.563 16.875h-1.875a.313.313 0 0 1 0-.626h1.563v-1.563a.313.313 0 0 1 .626 0v1.875a.314.314 0 0 1-.313.313zm0-3.75a.313.313 0 0 1-.313-.313v-1.875a.313.313 0 0 1 .626 0v1.875a.314.314 0 0 1-.313.313zm0-3.75a.313.313 0 0 1-.313-.313V7.187a.313.313 0 0 1 .626 0v1.875a.314.314 0 0 1-.313.313zm0-3.75a.313.313 0 0 1-.313-.313V3.749h-1.563a.313.313 0 0 1 0-.626h1.875c.172 0 .313.14.313.313v1.875a.314.314 0 0 1-.313.313zm-7.397 7.533a.293.293 0 0 1-.417 0l-.626-.626-.002-.006-1.993-2.008a.293.293 0 0 1 0-.417l.626-.627a.295.295 0 0 1 .418 0l1.788 1.801 3.759-3.758a.295.295 0 0 1 .418 0l.626.627a.295.295 0 0 1 0 .418l-4.596 4.596zm3.647-9.408h-1.875a.313.313 0 0 1 0-.626h1.875a.313.313 0 0 1 0 .626zm-3.75 0H7.188a.313.313 0 0 1 0-.626h1.875a.313.313 0 0 1 0 .626zm-3.75 13.125H3.438a.313.313 0 0 1-.313-.313v-1.875a.313.313 0 0 1 .626 0v1.563h1.563a.313.313 0 0 1 0 .626zm0-13.125H3.75v1.563a.313.313 0 0 1-.626 0V3.438c0-.172.14-.313.313-.313h1.875a.313.313 0 0 1 0 .626zM3.438 6.875c.172 0 .313.14.313.313v1.875a.313.313 0 0 1-.626 0V7.188c0-.172.14-.313.313-.313zm0 3.75c.172 0 .313.14.313.313v1.875a.313.313 0 0 1-.626 0v-1.875c0-.172.14-.313.313-.313zm3.75 5.625h1.875a.313.313 0 0 1 0 .626H7.188a.313.313 0 0 1 0-.626zm3.75 0h1.875a.313.313 0 0 1 0 .626h-1.875a.313.313 0 0 1 0-.626z"/></svg>