<svg version="1.1" xmlns="http://www.w3.org/2000/svg" width="20" height="20" viewBox="0 0 20 20"><path d="M16.563 16.875h-1.875a.313.313 0 0 1 0-.626h1.563v-1.563a.313.313 0 0 1 .626 0v1.875a.314.314 0 0 1-.313.313zm0-3.75a.313.313 0 0 1-.313-.313v-1.875a.313.313 0 0 1 .626 0v1.875a.314.314 0 0 1-.313.313zm0-3.75a.313.313 0 0 1-.313-.313V7.187a.313.313 0 0 1 .626 0v1.875a.314.314 0 0 1-.313.313zm0-3.75a.313.313 0 0 1-.313-.313V3.749h-1.563a.313.313 0 0 1 0-.626h1.875c.172 0 .313.14.313.313v1.875a.314.314 0 0 1-.313.313zm-3.75 11.25h-1.875a.313.313 0 0 1 0-.626h1.875a.313.313 0 0 1 0 .626zm0-13.125h-1.875a.313.313 0 0 1 0-.626h1.875a.313.313 0 0 1 0 .626zm-3.75 0H7.188a.313.313 0 0 1 0-.626h1.875a.313.313 0 0 1 0 .626zm-3.75 13.125H3.438a.313.313 0 0 1-.313-.313v-1.875a.313.313 0 0 1 .626 0v1.563h1.563a.313.313 0 0 1 0 .626zm0-13.125H3.75v1.563a.313.313 0 0 1-.626 0V3.438c0-.172.14-.313.313-.313h1.875a.313.313 0 0 1 0 .626zM3.438 6.875c.172 0 .313.14.313.313v1.875a.313.313 0 0 1-.626 0V7.188c0-.172.14-.313.313-.313zm0 3.75c.172 0 .313.14.313.313v1.875a.313.313 0 0 1-.626 0v-1.875c0-.172.14-.313.313-.313zm9.522 1.702l-.634.634a.298.298 0 0 1-.422 0l-1.794-1.794-1.794 1.794a.298.298 0 0 1-.422 0l-.633-.634a.298.298 0 0 1 0-.422l1.794-1.794-1.794-1.794a.298.298 0 0 1 0-.422l.633-.633a.298.298 0 0 1 .422 0l1.794 1.794 1.794-1.794a.298.298 0 0 1 .422 0l.634.633a.3.3 0 0 1 0 .422l-1.794 1.794 1.794 1.794a.3.3 0 0 1 0 .422zM7.188 16.25h1.875a.313.313 0 0 1 0 .626H7.188a.313.313 0 0 1 0-.626z"/></svg>