<svg version="1.1" xmlns="http://www.w3.org/2000/svg" width="32" height="32" viewBox="0 0 32 32"><path d="M24 1.333h2.667q1.656 0 2.828 1.172t1.172 2.828V8q0 .552-.391.943t-.943.391-.943-.391T27.999 8V5.333q0-.552-.391-.943t-.943-.391h-2.667q-.552 0-.943-.391t-.391-.943.391-.943.943-.391zM2.667 22.667q.552 0 .943.391t.391.943v2.667q0 .552.391.943t.943.391h2.667q.552 0 .943.391t.391.943-.391.943-.943.391H5.335q-1.656 0-2.828-1.172T1.335 26.67v-2.667q0-.552.391-.943t.943-.391zm0-10.667q.552 0 .943.391t.391.943v5.333q0 .552-.391.943t-.943.391-.943-.391-.391-.943v-5.333q0-.552.391-.943T2.667 12zm10.666 16h5.333q.552 0 .943.391t.391.943-.391.943-.943.391h-5.333q-.552 0-.943-.391t-.391-.943.391-.943.943-.391zm-8-26.667H8q.552 0 .943.391t.391.943-.391.943T8 4.001H5.333q-.552 0-.943.391t-.391.943v2.667q0 .552-.391.943t-.943.391-.943-.391-.391-.943V5.335q0-1.656 1.172-2.828t2.828-1.172zm24 21.334q.552 0 .943.391t.391.943v2.667q0 1.656-1.172 2.828t-2.828 1.172H24q-.552 0-.943-.391t-.391-.943.391-.943T24 28h2.667q.552 0 .943-.391t.391-.943v-2.667q0-.552.391-.943t.943-.391zm0-10.667q.552 0 .943.391t.391.943v5.333q0 .552-.391.943t-.943.391-.943-.391-.391-.943v-5.333q0-.552.391-.943t.943-.391zm-16-10.667h5.333q.552 0 .943.391t.391.943-.391.943-.943.391h-5.333q-.552 0-.943-.391t-.391-.943.391-.943.943-.391z" fill="#000"/></svg>