<svg width="279" height="205" viewBox="0 0 279 205" version="1.1" xmlns="http://www.w3.org/2000/svg"><path d="M51.025 162.898l.26-41.25h24l.262 41.25.26 41.25H50.765l.26-41.25zm70.22 40.004c-.276-.72-.38-10.52-.23-21.781l.27-20.473h25v43l-12.269.28c-9.387.216-12.387-.025-12.771-1.026zm70.54-52.754v-54h25v108h-25v-54zm-81.138 1.09l-2.361-1.909-.32-14.366-.32-14.367 2.142-2.724 2.143-2.724h43.71l2.072 2.635 2.073 2.635v27.82l-2.455 2.455-2.454 2.455h-41.87l-2.36-1.91zm-67.861-36.763c-.825-.323-2.288-1.274-3.25-2.113l-1.75-1.524v-30.38l2.105-1.905 2.105-1.905h42.58l2.105 1.905 2.105 1.905v15.154c0 11.5-.342 15.622-1.418 17.095l-1.418 1.94-20.832.209c-11.458.114-21.507-.057-22.332-.38zm78.47-7.546c-.27-.705-.373-24.906-.23-53.781l.26-52.5h25v107l-12.27.28c-9.26.213-12.39-.032-12.76-1zm59.752-19.338l-2.222-1.556V54.26l2.222-1.556 2.223-1.557h42.555l2 2 2 2v30l-2 2-2 2H183.23l-2.223-1.557zM51.482 69.511c-.383-.383-.696-16.146-.696-35.03V.148h25.026l-.263 34.75-.263 34.75-11.554.28c-6.354.154-11.866-.034-12.25-.417zm140.304-47.363v-22h25v44h-25v-22zm86.15-21.5v-.5h1v1h-1v-.5zm-277 201v-.5h1v1h-1v-.5z" fill="#000" stroke="none" stroke-width="1" fill-rule="evenodd"/></svg>