<svg width="279px" height="205px" viewBox="0 0 279 205" version="1.1" xmlns="http://www.w3.org/2000/svg" xmlns:xlink="http://www.w3.org/1999/xlink">
    <g id="Page-1" stroke="none" stroke-width="1" fill="none" fill-rule="evenodd">
        <g id="settings" transform="translate(1.000000, 0.000000)" fill="#000000">
            <path d="M50.02463,162.89791 L50.28572,121.64791 L62.28572,121.64791 L74.28572,121.64791 L74.54681,162.89791 L74.80791,204.14791 L62.28572,204.14791 L49.76353,204.14791 L50.02463,162.89791 L50.02463,162.89791 Z M120.24479,202.90185 C119.96874,202.18248 119.86503,192.38106 120.0143,181.12091 L120.28572,160.64791 L132.78572,160.64791 L145.28572,160.64791 L145.28572,182.14791 L145.28572,203.64791 L133.01621,203.92885 C123.62877,204.14379 120.6288,203.90255 120.24479,202.90185 L120.24479,202.90185 Z M190.78572,150.14791 L190.78572,96.14791 L203.28572,96.14791 L215.78572,96.14791 L215.78572,150.14791 L215.78572,204.14791 L203.28572,204.14791 L190.78572,204.14791 L190.78572,150.14791 L190.78572,150.14791 Z M109.6465,151.23856 L107.28572,149.32921 L106.96562,134.96254 L106.64552,120.59587 L108.7882,117.87189 L110.93088,115.14791 L132.78572,115.14791 L154.64056,115.14791 L156.71314,117.78277 L158.78572,120.41763 L158.78572,134.32822 L158.78572,148.23882 L156.33117,150.69336 L153.87663,153.14791 L132.94196,153.14791 L112.00729,153.14791 L109.6465,151.23856 L109.6465,151.23856 Z M41.78572,114.47513 C40.96072,114.15162 39.49822,113.20091 38.53572,112.36243 L36.78572,110.83793 L36.78572,95.64791 L36.78572,80.45789 L38.89071,78.5529 L40.99569,76.64791 L62.28572,76.64791 L83.57574,76.64791 L85.68073,78.5529 L87.78572,80.45789 L87.78572,95.61177 C87.78572,107.11236 87.4439,111.23362 86.36786,112.70678 L84.94999,114.64791 L64.11786,114.85561 C52.66018,114.96985 42.61072,114.79861 41.78572,114.47513 L41.78572,114.47513 Z M120.25622,106.92885 C119.98646,106.22433 119.88275,82.02291 120.02574,53.14791 L120.28572,0.64791 L132.78572,0.64791 L145.28572,0.64791 L145.28572,54.14791 L145.28572,107.64791 L133.01621,107.92885 C123.75604,108.14088 120.62639,107.89565 120.25622,106.92885 L120.25622,106.92885 Z M180.00823,87.59121 L177.78572,86.0345 L177.78572,70.14791 L177.78572,54.26132 L180.00823,52.70461 L182.23073,51.14791 L203.50823,51.14791 L224.78572,51.14791 L226.78572,53.14791 L228.78572,55.14791 L228.78572,70.14791 L228.78572,85.14791 L226.78572,87.14791 L224.78572,89.14791 L203.50823,89.14791 L182.23073,89.14791 L180.00823,87.59121 L180.00823,87.59121 Z M50.48242,69.51128 C50.09923,69.12809 49.78572,53.36458 49.78572,34.48124 L49.78572,0.14791 L62.29868,0.14791 L74.81164,0.14791 L74.54868,34.89791 L74.28572,69.64791 L62.73242,69.92794 C56.3781,70.08196 50.8656,69.89444 50.48242,69.51128 L50.48242,69.51128 Z M190.78572,22.14791 L190.78572,0.14791 L203.28572,0.14791 L215.78572,0.14791 L215.78572,22.14791 L215.78572,44.14791 L203.28572,44.14791 L190.78572,44.14791 L190.78572,22.14791 L190.78572,22.14791 Z M276.935544,0.64791 L276.935544,0.14791 L277.435544,0.14791 L277.935544,0.14791 L277.935544,0.64791 L277.935544,1.14791 L277.435544,1.14791 L276.935544,1.14791 L276.935544,0.64791 L276.935544,0.64791 Z M-0.064453125,201.647919 L-0.064453125,201.147919 L0.435546875,201.147919 L0.935546875,201.147919 L0.935546875,201.647919 L0.935546875,202.147919 L0.435546875,202.147919 L-0.064453125,202.147919 L-0.064453125,201.647919 L-0.064453125,201.647919 Z" id="path4380"></path>
        </g>
    </g>
</svg>