<?xml version="1.0" encoding="utf-8"?>
<svg version="1.1" xmlns="http://www.w3.org/2000/svg" xmlns:xlink="http://www.w3.org/1999/xlink" width="16" height="14" viewBox="0 0 16 14">
<path fill="#000000" d="M9 7q0-0.813-0.316-1.551t-0.855-1.277-1.277-0.855-1.551-0.316-1.551 0.316-1.277 0.855-0.855 1.277-0.316 1.551 0.316 1.551 0.855 1.277 1.277 0.855 1.551 0.316 1.551-0.316 1.277-0.855 0.855-1.277 0.316-1.551zM15 7q0-0.813-0.316-1.551t-0.855-1.277-1.277-0.855-1.551-0.316h-3.016q0.93 0.703 1.473 1.75t0.543 2.25-0.543 2.25-1.473 1.75h3.016q0.813 0 1.551-0.316t1.277-0.855 0.855-1.277 0.316-1.551zM16 7q0 1.016-0.398 1.941t-1.066 1.594-1.594 1.066-1.941 0.398h-6q-1.016 0-1.941-0.398t-1.594-1.066-1.066-1.594-0.398-1.941 0.398-1.941 1.066-1.594 1.594-1.066 1.941-0.398h6q1.016 0 1.941 0.398t1.594 1.066 1.066 1.594 0.398 1.941z"></path>
</svg>
