<svg version="1.1" xmlns="http://www.w3.org/2000/svg" width="16" height="14" viewBox="0 0 16 14"><path fill="#000" d="M0 7q0-1.016.398-1.941t1.066-1.594 1.594-1.066 1.941-.398h6q1.016 0 1.941.398t1.594 1.066T15.6 5.059 15.998 7 15.6 8.941t-1.066 1.594-1.594 1.066-1.941.398h-6q-1.016 0-1.941-.398t-1.594-1.066T.398 8.941 0 7zm11 4q.813 0 1.551-.316t1.277-.855.855-1.277.316-1.551-.316-1.551-.855-1.277-1.277-.855T11 3.002t-1.551.316-1.277.855-.855 1.277-.316 1.551.316 1.551.855 1.277 1.277.855T11 11z"/></svg>