<svg version="1.1" xmlns="http://www.w3.org/2000/svg" width="16" height="14" viewBox="0 0 16 14"><path fill="#000" d="M9 7q0-.813-.316-1.551t-.855-1.277-1.277-.855-1.551-.316-1.551.316-1.277.855-.855 1.277T1.002 7t.316 1.551.855 1.277 1.277.855 1.551.316 1.551-.316 1.277-.855.855-1.277T9 7zm6 0q0-.813-.316-1.551t-.855-1.277-1.277-.855-1.551-.316H7.985q.93.703 1.473 1.75t.543 2.25-.543 2.25-1.473 1.75h3.016q.813 0 1.551-.316t1.277-.855.855-1.277T15 7.002zm1 0q0 1.016-.398 1.941t-1.066 1.594-1.594 1.066-1.941.398h-6q-1.016 0-1.941-.398t-1.594-1.066T.4 8.941.002 7 .4 5.059t1.066-1.594T3.06 2.399t1.941-.398h6q1.016 0 1.941.398t1.594 1.066 1.066 1.594T16 7z"/></svg>