<svg version="1.1" xmlns="http://www.w3.org/2000/svg">
  <path style="fill:#000000" d="M 258.15625 357.4375 C 253.56295 357.72256 233.62651 361.41275 196.15625 368.90625 L 133.59375 381.4375 L 133.59375 440.3125 C 133.59375 506.47697 134.29593 501.33087 125.5 498.71875 C 73.956586 483.41201 36.91805 552.59262 87.4375 569.8125 C 107.90516 576.78903 134.33983 567.28243 145.28125 549 C 151.4688 538.66099 151.59375 537.45801 151.59375 476.90625 L 151.59375 422.09375 L 153.84375 421.15625 C 156.64136 419.98204 236.25334 404.123 239.34375 404.125 L 241.59375 404.125 L 241.59375 442.625 C 241.59375 472.76411 241.32229 481.133 240.34375 481.125 C 239.65625 481.11904 236.84375 480.39584 234.09375 479.53125 C 204.72818 470.29891 169.3644 494.62514 171.875 522.3125 C 175.34429 560.57243 237.51122 563.48455 255.84375 526.25 L 259.09375 519.6875 L 259.34375 439.1875 C 259.49092 394.90989 259.42684 358.15496 259.1875 357.53125 C 259.15028 357.43425 258.81244 357.39678 258.15625 357.4375 z M 292.8125 541.28125 L 292.8125 541.4375 L 293.09375 541.4375 L 293.09375 541.28125 L 292.8125 541.28125 z "
     id="path3038" />
</svg>
