<svg version="1.1" xmlns="http://www.w3.org/2000/svg"><path d="M269.857 625.72v-9.5h12.714l.673-9.763c2.24-32.525 11.248-49.243 35.915-66.653 20.34-14.356 20.34-24.813 0-39.17-24.667-17.41-33.675-34.128-35.915-66.652l-.673-9.763h-12.714v-19h159v18.905l-6.25.298-6.25.297-.654 11c-1.829 30.743-11.201 47.844-35.55 64.867-20.986 14.671-20.667 24.656 1.285 40.217 22.999 16.302 34.366 37.86 34.433 65.297.023 9.687.327 10.12 7.103 10.12h5.883v19h-159v-9.5zm134.9-12.75c-.218-7.123-.189-7.1-26.4-21.657l-25-13.886.01-32.354c.014-41.155-.061-40.944 19.557-54.95 9.933-7.092 18.865-15.852 22.332-21.902 2.256-3.938 4.481-4.351-18.004 3.347-28.065 9.607-28.104 9.606-59.809-1.486-16.187-5.664-15.916-5.706-10.984 1.725 3.792 5.712 8.44 9.858 24.292 21.662 14.603 10.874 14.556 10.712 14.865 50.75l.26 33.5-25.497 14-25.495 14-.014 5.25-.013 5.25h110l-.1-3.25z" fill="#000"/></svg>