<svg xmlns="http://www.w3.org/2000/svg"><path d="M0 19.429v-6.857c0-.31.113-.577.339-.804.226-.227.494-.34.804-.339h4.679l5.946-5.946c.226-.226.494-.339.804-.339.31 0 .578.113.804.339.226.226.339.494.339.804v19.429a1.1 1.1 0 0 1-.339.804c-.226.227-.494.34-.804.339-.31 0-.578-.114-.804-.339l-5.946-5.946H1.143a1.1 1.1 0 0 1-.804-.339A1.094 1.094 0 0 1 0 19.431v-.002m16.214-.286c0-.25.071-.461.214-.634.143-.173.315-.321.518-.446a8.63 8.63 0 0 0 .607-.411c.202-.15.375-.36.518-.634.143-.273.215-.613.214-1.018 0-.405-.072-.745-.214-1.018a1.793 1.793 0 0 0-.518-.634 9.307 9.307 0 0 0-.607-.411 2.125 2.125 0 0 1-.518-.446.949.949 0 0 1-.214-.634c0-.321.113-.592.339-.813.226-.22.494-.33.804-.33.179 0 .327.03.446.089.833.321 1.503.875 2.009 1.661a4.6 4.6 0 0 1 0 5.063 4.22 4.22 0 0 1-2.009 1.67.998.998 0 0 1-.446.089c-.31 0-.577-.11-.804-.33a1.085 1.085 0 0 1-.339-.813z"/></svg>