<svg width="128px" height="128px" viewBox="0 0 128 128" version="1.1" xmlns="http://www.w3.org/2000/svg" xmlns:xlink="http://www.w3.org/1999/xlink">
    <g id="Controls" stroke="none" stroke-width="1" fill="none" fill-rule="evenodd">
        <g id="wipe-space" fill="#000000">
            <rect id="Line" x="52" y="14" width="24" height="100" rx="12"></rect>
            <path d="M104.7472,80 C103.1088,80 101.4736,79.376 100.2224,78.1248 L86.0976,64 L100.2224,49.8752 C102.7216,47.376 106.7792,47.376 109.272,49.8752 C111.7712,52.3744 111.7712,56.4256 109.272,58.9248 L104.2,64 L109.272,69.0752 C111.7712,71.5744 111.7712,75.6256 109.272,78.1248 C108.024,79.376 106.3856,80 104.7472,80 L104.7472,80 Z" id="Shape"></path>
            <path d="M23.2528,80 C21.6144,80 19.976,79.376 18.728,78.1248 C16.2288,75.6256 16.2288,71.5744 18.728,69.0752 L23.8,64 L18.728,58.9248 C16.2288,56.4256 16.2288,52.3744 18.728,49.8752 C21.2208,47.376 25.2784,47.376 27.7776,49.8752 L41.9024,64 L27.7776,78.1248 C26.5296,79.376 24.8912,80 23.2528,80 L23.2528,80 Z" id="Shape"></path>
        </g>
    </g>
</svg>