<svg version="1.1" xmlns="http://www.w3.org/2000/svg" xmlns:xlink="http://www.w3.org/1999/xlink" width="32" height="32" viewBox="0 0 32 32">
	<path d="M17.333 14.667h-6.667c-0.368 0-0.667 0.299-0.667 0.667s0.299 0.667 0.667 0.667h6.667c0.368 0 0.667-0.299 0.667-0.667s-0.299-0.667-0.667-0.667z" fill="#000000"></path>
	<path d="M25.841 21.275l-1.265-1.315-1.715-1.716c0.303-0.917 0.472-1.893 0.472-2.911 0-5.145-4.187-9.333-9.333-9.333s-9.333 4.188-9.333 9.333 4.187 9.333 9.333 9.333c1.017 0 1.995-0.169 2.912-0.472l3.096 3.093 0.087 0.073c0.801 0.675 1.797 1.045 2.805 1.045 2.301 0 4.173-1.872 4.173-4.175 0-1.12-0.437-2.171-1.232-2.957zM7.333 15.333c0-3.676 2.991-6.667 6.667-6.667s6.667 2.991 6.667 6.667-2.991 6.667-6.667 6.667-6.667-2.991-6.667-6.667z" fill="#000000"></path>
</svg>
