<svg version="1.1" xmlns="http://www.w3.org/2000/svg" width="32" height="32" viewBox="0 0 32 32"><path d="M17.333 14.667h-2.667V12a.667.667 0 0 0-1.334 0v2.667h-2.667a.667.667 0 0 0 0 1.334h2.667v2.667a.667.667 0 0 0 1.334 0v-2.667h2.667a.667.667 0 0 0 0-1.334z" fill="#000"/><path d="M24.576 19.96l-1.713-1.716a9.253 9.253 0 0 0 .472-2.911c0-5.145-4.188-9.333-9.333-9.333s-9.333 4.188-9.333 9.333 4.188 9.333 9.333 9.333a9.264 9.264 0 0 0 2.912-.472l3.097 3.093.085.073a4.37 4.37 0 0 0 2.805 1.045 4.178 4.178 0 0 0 4.173-4.175c0-1.12-.437-2.171-1.232-2.957l-1.267-1.315zM7.333 15.333c0-3.676 2.991-6.667 6.667-6.667s6.667 2.991 6.667 6.667S17.676 22 14 22s-6.667-2.991-6.667-6.667z" fill="#000"/></svg>