<svg version="1.1" xmlns="http://www.w3.org/2000/svg" width="24" height="24" viewBox="0 0 24 24">
<path fill="#000000" d="M13 4c-3.859 0-7 3.141-7 7 0 0.763 0.127 1.495 0.354 2.183l-1.26 1.262-1.008 1.045c-0.562 0.557-0.891 1.345-0.891 2.185 0 1.727 1.404 3.131 3.13 3.131 0.757 0 1.504-0.278 2.104-0.784l0.064-0.055 0.061-0.061 2.262-2.259c0.688 0.226 1.421 0.353 2.184 0.353 3.859 0 7-3.141 7-7s-3.141-7-7-7zM13 16c-2.757 0-5-2.243-5-5s2.243-5 5-5 5 2.243 5 5-2.243 5-5 5z"></path>
<path fill="#000000" d="M13 7c-2.205 0-4 1.794-4 4s1.795 4 4 4 4-1.794 4-4-1.795-4-4-4zM13 14c-1.656 0-3-1.344-3-3s1.344-3 3-3 3 1.344 3 3-1.344 3-3 3z"></path>
</svg>
