<svg version="1.1" xmlns="http://www.w3.org/2000/svg" xmlns:xlink="http://www.w3.org/1999/xlink" width="32" height="32" viewBox="0 0 32 32">
	<path d="M17.333 14.667h-2.667v-2.667c0-0.368-0.299-0.667-0.667-0.667s-0.667 0.299-0.667 0.667v2.667h-2.667c-0.368 0-0.667 0.299-0.667 0.667s0.299 0.667 0.667 0.667h2.667v2.667c0 0.368 0.299 0.667 0.667 0.667s0.667-0.299 0.667-0.667v-2.667h2.667c0.368 0 0.667-0.299 0.667-0.667s-0.299-0.667-0.667-0.667z" fill="#000000"></path>
	<path d="M24.576 19.96l-1.713-1.716c0.303-0.917 0.472-1.893 0.472-2.911 0-5.145-4.188-9.333-9.333-9.333s-9.333 4.188-9.333 9.333 4.188 9.333 9.333 9.333c1.017 0 1.995-0.169 2.912-0.472l3.097 3.093 0.085 0.073c0.801 0.675 1.797 1.045 2.805 1.045 2.301 0 4.173-1.872 4.173-4.175 0-1.12-0.437-2.171-1.232-2.957l-1.267-1.315zM7.333 15.333c0-3.676 2.991-6.667 6.667-6.667s6.667 2.991 6.667 6.667-2.991 6.667-6.667 6.667-6.667-2.991-6.667-6.667z" fill="#000000"></path>
</svg>
