<svg xmlns="http://www.w3.org/2000/svg" xmlns:xlink="http://www.w3.org/1999/xlink" width="863.58342" height="842.08977" viewBox="0 0 863.58342 842.08977">
  <defs>
    <linearGradient id="20794d0d-ea67-4249-b501-c4565899937f" x1="514.055" y1="262.93742" x2="462.28089" y2="58.19437" gradientUnits="userSpaceOnUse">
      <stop offset="0" stop-color="#e51d05"/>
      <stop offset="1" stop-color="#ca1601"/>
    </linearGradient>
    <linearGradient id="78d4b846-a400-4d27-be3a-c602136a7eec" x1="475.32093" y1="89.21993" x2="480.00522" y2="261.75765" gradientUnits="userSpaceOnUse">
      <stop offset="0" stop-color="#ff5b02"/>
      <stop offset="1" stop-color="#f42b01"/>
    </linearGradient>
    <linearGradient id="d2a86d23-2a45-4bf7-9bf1-c08bb4dad9fc" x1="357.4255" y1="257.20582" x2="391.54934" y2="71.87806" gradientUnits="userSpaceOnUse">
      <stop offset="0" stop-color="#c61500"/>
      <stop offset="1" stop-color="#840000"/>
    </linearGradient>
    <linearGradient id="a1eabef9-a24d-43d0-b9ef-2a378cba8934" x1="431.74006" y1="47.45767" x2="431.74006" y2="285.66162" gradientUnits="userSpaceOnUse">
      <stop offset="0" stop-color="#d61500"/>
      <stop offset="1" stop-color="#a20500"/>
    </linearGradient>
    <linearGradient id="f0c1ac92-a423-4c25-8c16-3ea6dd4f30db" x1="426.90083" y1="314.9712" x2="457.49462" y2="222.01315" gradientUnits="userSpaceOnUse">
      <stop offset="0" stop-color="#fe9200"/>
      <stop offset="1" stop-color="#f95b00"/>
    </linearGradient>
    <linearGradient id="6fa3b7bf-4329-409b-adae-b92e17fc42bc" x1="413.77344" y1="330.63416" x2="373.76618" y2="206.49398" gradientUnits="userSpaceOnUse">
      <stop offset="0" stop-color="#fe6400"/>
      <stop offset="1" stop-color="#ea2200"/>
    </linearGradient>
    <linearGradient id="85908edc-81df-4aca-b0f7-e33563d09d6a" x1="-7943.64456" y1="-7384.57328" x2="-7995.41866" y2="-7589.31633" gradientTransform="translate(-195.32208 11209.95012) rotate(51.42)" xlink:href="#20794d0d-ea67-4249-b501-c4565899937f"/>
    <linearGradient id="b3f12753-38cc-4404-8557-4f08f76904b2" x1="-7982.37862" y1="-7558.29077" x2="-7977.69434" y2="-7385.75305" gradientTransform="translate(-195.32208 11209.95012) rotate(51.42)" xlink:href="#78d4b846-a400-4d27-be3a-c602136a7eec"/>
    <linearGradient id="d13b9448-0429-40aa-8ecf-8184e7ef414f" x1="-8100.27405" y1="-7390.30488" x2="-8066.15021" y2="-7575.63264" gradientTransform="translate(-195.32208 11209.95012) rotate(51.42)" xlink:href="#d2a86d23-2a45-4bf7-9bf1-c08bb4dad9fc"/>
    <linearGradient id="beddd848-eac2-48fb-9774-5104baf103e2" x1="-8025.9595" y1="-7600.05303" x2="-8025.9595" y2="-7361.84908" gradientTransform="translate(-195.32208 11209.95012) rotate(51.42)" xlink:href="#a1eabef9-a24d-43d0-b9ef-2a378cba8934"/>
    <linearGradient id="7667ab83-3ce2-42da-a1f0-416e9ab6037e" x1="-8030.79873" y1="-7332.53951" x2="-8000.20494" y2="-7425.49756" gradientTransform="translate(-195.32208 11209.95012) rotate(51.42)" xlink:href="#f0c1ac92-a423-4c25-8c16-3ea6dd4f30db"/>
    <linearGradient id="776e1049-0c23-4d44-894e-e71f08d88916" x1="-8043.92611" y1="-7316.87655" x2="-8083.93337" y2="-7441.01673" gradientTransform="translate(-195.32208 11209.95012) rotate(51.42)" xlink:href="#6fa3b7bf-4329-409b-adae-b92e17fc42bc"/>
    <linearGradient id="f8476325-3f62-4e29-905c-01d5b89d6178" x1="-8135.82555" y1="-7690.36664" x2="-8187.59966" y2="-7895.10969" gradientTransform="translate(-8717.15487 6786.53303) rotate(102.84)" xlink:href="#20794d0d-ea67-4249-b501-c4565899937f"/>
    <linearGradient id="c51f6466-d344-49f2-9868-bb47157d41a0" x1="-8174.55962" y1="-7864.08413" x2="-8169.87533" y2="-7691.54641" gradientTransform="translate(-8717.15487 6786.53303) rotate(102.84)" xlink:href="#78d4b846-a400-4d27-be3a-c602136a7eec"/>
    <linearGradient id="67914a5a-accf-470e-80f8-adc307d465de" x1="-8292.45505" y1="-7696.09824" x2="-8258.33121" y2="-7881.426" gradientTransform="translate(-8717.15487 6786.53303) rotate(102.84)" xlink:href="#d2a86d23-2a45-4bf7-9bf1-c08bb4dad9fc"/>
    <linearGradient id="e8b58b93-5ba2-45e4-b866-a271afe78c82" x1="-8218.14049" y1="-7905.84639" x2="-8218.14049" y2="-7667.64244" gradientTransform="translate(-8717.15487 6786.53303) rotate(102.84)" xlink:href="#a1eabef9-a24d-43d0-b9ef-2a378cba8934"/>
    <linearGradient id="c218895e-3fc9-4b03-aca3-f357ab91999b" x1="-8222.97972" y1="-7638.33287" x2="-8192.38593" y2="-7731.29092" gradientTransform="translate(-8717.15487 6786.53303) rotate(102.84)" xlink:href="#f0c1ac92-a423-4c25-8c16-3ea6dd4f30db"/>
    <linearGradient id="46b1da0f-e69a-4325-a39e-aebe51bb71c5" x1="-8236.10711" y1="-7622.66991" x2="-8276.11437" y2="-7746.81009" gradientTransform="translate(-8717.15487 6786.53303) rotate(102.84)" xlink:href="#6fa3b7bf-4329-409b-adae-b92e17fc42bc"/>
    <linearGradient id="cebd1e82-143b-4a69-8192-565a702d85f3" x1="-8494.72127" y1="-7730.82622" x2="-8546.49537" y2="-7935.56927" gradientTransform="translate(-10573.47327 -2633.78197) rotate(154.26)" xlink:href="#20794d0d-ea67-4249-b501-c4565899937f"/>
    <linearGradient id="100a6fc8-6cfa-4251-8475-206de2037971" x1="-8533.45533" y1="-7904.54371" x2="-8528.77105" y2="-7732.00599" gradientTransform="translate(-10573.47327 -2633.78197) rotate(154.26)" xlink:href="#78d4b846-a400-4d27-be3a-c602136a7eec"/>
    <linearGradient id="e0a1af11-9f64-4cae-9f32-2bb60babf732" x1="-8651.35076" y1="-7736.55782" x2="-8617.22692" y2="-7921.88558" gradientTransform="translate(-10573.47327 -2633.78197) rotate(154.26)" xlink:href="#d2a86d23-2a45-4bf7-9bf1-c08bb4dad9fc"/>
    <linearGradient id="fb7451a9-0c23-488e-b81a-8a6f64b49803" x1="-8577.03621" y1="-7946.30597" x2="-8577.03621" y2="-7708.10202" gradientTransform="translate(-10573.47327 -2633.78197) rotate(154.26)" xlink:href="#a1eabef9-a24d-43d0-b9ef-2a378cba8934"/>
    <linearGradient id="d3617fb6-6b68-46f4-9feb-e6209f30e605" x1="-8581.87544" y1="-7678.79245" x2="-8551.28165" y2="-7771.7505" gradientTransform="translate(-10573.47327 -2633.78197) rotate(154.26)" xlink:href="#f0c1ac92-a423-4c25-8c16-3ea6dd4f30db"/>
    <linearGradient id="42835bbc-df4e-48a2-8087-30f2b49d6a6e" x1="-8595.00282" y1="-7663.12949" x2="-8635.01008" y2="-7787.26967" gradientTransform="translate(-10573.47327 -2633.78197) rotate(154.26)" xlink:href="#6fa3b7bf-4329-409b-adae-b92e17fc42bc"/>
    <linearGradient id="cdc02b84-3ebe-47b2-b1ed-13e517c65557" x1="-8750.15986" y1="-7475.4946" x2="-8801.93397" y2="-7680.23765" gradientTransform="translate(-4366.86587 -9959.50907) rotate(-154.32)" xlink:href="#20794d0d-ea67-4249-b501-c4565899937f"/>
    <linearGradient id="f0e1ea79-f72a-400d-b67a-43f36d6ee892" x1="-8788.89393" y1="-7649.21209" x2="-8784.20965" y2="-7476.67437" gradientTransform="translate(-4366.86587 -9959.50907) rotate(-154.32)" xlink:href="#78d4b846-a400-4d27-be3a-c602136a7eec"/>
    <linearGradient id="659e3981-a204-457e-9339-0f64846dc1bf" x1="-8906.78936" y1="-7481.2262" x2="-8872.66552" y2="-7666.55396" gradientTransform="translate(-4366.86587 -9959.50907) rotate(-154.32)" xlink:href="#d2a86d23-2a45-4bf7-9bf1-c08bb4dad9fc"/>
    <linearGradient id="336c6fa0-5d17-4bbe-9afb-811d7e8a286f" x1="-8832.4748" y1="-7690.97435" x2="-8832.4748" y2="-7452.7704" gradientTransform="translate(-4366.86587 -9959.50907) rotate(-154.32)" xlink:href="#a1eabef9-a24d-43d0-b9ef-2a378cba8934"/>
    <linearGradient id="1df98ef3-eaf9-442c-8284-ecc1572859b7" x1="-8837.31403" y1="-7423.46082" x2="-8806.72025" y2="-7516.41887" gradientTransform="translate(-4366.86587 -9959.50907) rotate(-154.32)" xlink:href="#f0c1ac92-a423-4c25-8c16-3ea6dd4f30db"/>
    <linearGradient id="d56c31ab-e8b2-45d4-9e10-82f2b66ba143" x1="-8850.44142" y1="-7407.79786" x2="-8890.44868" y2="-7531.93805" gradientTransform="translate(-4366.86587 -9959.50907) rotate(-154.32)" xlink:href="#6fa3b7bf-4329-409b-adae-b92e17fc42bc"/>
    <linearGradient id="480a6be8-e0a1-4135-9883-2a0302c20524" x1="-8709.85061" y1="-7116.58196" x2="-8761.62472" y2="-7321.32501" gradientTransform="translate(5230.41715 -9675.93988) rotate(-102.9)" xlink:href="#20794d0d-ea67-4249-b501-c4565899937f"/>
    <linearGradient id="19fd52a1-43aa-41c0-beff-7294c8690538" x1="-8748.58468" y1="-7290.29946" x2="-8743.90039" y2="-7117.76173" gradientTransform="translate(5230.41715 -9675.93988) rotate(-102.9)" xlink:href="#78d4b846-a400-4d27-be3a-c602136a7eec"/>
    <linearGradient id="2fac400d-5980-42d4-a7b0-bcc4eb208841" x1="-8866.48011" y1="-7122.31357" x2="-8832.35627" y2="-7307.64132" gradientTransform="translate(5230.41715 -9675.93988) rotate(-102.9)" xlink:href="#d2a86d23-2a45-4bf7-9bf1-c08bb4dad9fc"/>
    <linearGradient id="571809b7-1a37-4113-9cd2-e2a4e94f3f14" x1="-8792.16555" y1="-7332.06171" x2="-8792.16555" y2="-7093.85776" gradientTransform="translate(5230.41715 -9675.93988) rotate(-102.9)" xlink:href="#a1eabef9-a24d-43d0-b9ef-2a378cba8934"/>
    <linearGradient id="735b9bf0-8540-4569-b020-1407477dd313" x1="-8797.00478" y1="-7064.54819" x2="-8766.411" y2="-7157.50624" gradientTransform="translate(5230.41715 -9675.93988) rotate(-102.9)" xlink:href="#f0c1ac92-a423-4c25-8c16-3ea6dd4f30db"/>
    <linearGradient id="63a7d2d4-b2fa-4539-b2ac-8f25305183cf" x1="-8810.13217" y1="-7048.88523" x2="-8850.13943" y2="-7173.02541" gradientTransform="translate(5230.41715 -9675.93988) rotate(-102.9)" xlink:href="#6fa3b7bf-4329-409b-adae-b92e17fc42bc"/>
    <linearGradient id="2195066f-c52d-4ba2-8bfb-8d908ce2f7b4" x1="-8404.05521" y1="-6924.19912" x2="-8455.84658" y2="-7129.01047" gradientTransform="matrix(0.62279, -0.78239, 0.78239, 0.62279, 10993.67082, -1996.54147)" xlink:href="#20794d0d-ea67-4249-b501-c4565899937f"/>
    <linearGradient id="09551d1d-0a05-4bcf-97a5-e3195bc04a90" x1="-8442.87125" y1="-7097.96848" x2="-8438.18583" y2="-6925.3889" gradientTransform="matrix(0.62279, -0.78239, 0.78239, 0.62279, 10993.67082, -1996.54147)" xlink:href="#78d4b846-a400-4d27-be3a-c602136a7eec"/>
    <linearGradient id="e12c1b34-55ec-4190-abb6-6f6d3f380cee" x1="-8560.76727" y1="-6930.0045" x2="-8526.64343" y2="-7115.33226" gradientTransform="matrix(0.62279, -0.78239, 0.78239, 0.62279, 10993.67082, -1996.54147)" xlink:href="#d2a86d23-2a45-4bf7-9bf1-c08bb4dad9fc"/>
    <linearGradient id="8d3e3517-e584-4cf6-a7ba-d0c4a7a01b77" x1="-8486.37993" y1="-7139.74169" x2="-8486.37993" y2="-6901.48271" gradientTransform="matrix(0.62279, -0.78239, 0.78239, 0.62279, 10993.67082, -1996.54147)" xlink:href="#a1eabef9-a24d-43d0-b9ef-2a378cba8934"/>
    <linearGradient id="0c8695e2-4a39-4fb1-92be-839d237630a0" x1="-8491.21586" y1="-6872.21409" x2="-8460.62207" y2="-6965.17214" gradientTransform="matrix(0.62279, -0.78239, 0.78239, 0.62279, 10993.67082, -1996.54147)" xlink:href="#f0c1ac92-a423-4c25-8c16-3ea6dd4f30db"/>
    <linearGradient id="5ddd95ff-b659-4ffc-baf0-e09aab491849" x1="-8504.41933" y1="-6856.57617" x2="-8544.42659" y2="-6980.71635" gradientTransform="matrix(0.62279, -0.78239, 0.78239, 0.62279, 10993.67082, -1996.54147)" xlink:href="#6fa3b7bf-4329-409b-adae-b92e17fc42bc"/>
    <linearGradient id="49aeb285-2c31-475e-ad16-3fde715cf1f8" x1="364.83839" y1="307.35724" x2="432.30162" y2="436.7925" gradientUnits="userSpaceOnUse">
      <stop offset="0" stop-color="#fe5e00"/>
      <stop offset="1" stop-color="#feba00"/>
    </linearGradient>
    <linearGradient id="92086b52-6aa9-48d4-8bdf-53f065036ef9" x1="-8875.0909" y1="-7475.92583" x2="-8807.62767" y2="-7346.49057" gradientTransform="translate(186.34322 11906.11754) rotate(51.42)" gradientUnits="userSpaceOnUse">
      <stop offset="0" stop-color="#ff9b00"/>
      <stop offset="1" stop-color="#feca00"/>
    </linearGradient>
    <linearGradient id="ffb86a58-72b0-437e-95b3-4b9b4387f440" x1="-8878.98435" y1="-7119.11653" x2="-8811.52112" y2="-6989.68127" gradientTransform="translate(-8335.48957 7482.70046) rotate(102.84)" xlink:href="#49aeb285-2c31-475e-ad16-3fde715cf1f8"/>
    <linearGradient id="7a27f012-6040-4d32-be31-039d2065bb53" x1="-8602.48087" y1="-6893.56418" x2="-8535.01764" y2="-6764.12892" gradientTransform="translate(-10191.80797 -1937.61455) rotate(154.26)" xlink:href="#92086b52-6aa9-48d4-8bdf-53f065036ef9"/>
    <linearGradient id="fb70e4aa-a9a2-464e-8576-d9bbfa39aaa0" x1="-8253.72854" y1="-6969.06154" x2="-8186.26531" y2="-6839.62628" gradientTransform="translate(-3985.20057 -9263.34164) rotate(-154.32)" gradientUnits="userSpaceOnUse">
      <stop offset="0" stop-color="#fe5e00"/>
      <stop offset="1" stop-color="#fe9500"/>
    </linearGradient>
    <linearGradient id="f3d65946-d572-4207-b5f1-99f6dbeef8c5" x1="-8095.26341" y1="-7288.77522" x2="-8027.80018" y2="-7159.33996" gradientTransform="translate(5612.08245 -8979.77246) rotate(-102.9)" xlink:href="#49aeb285-2c31-475e-ad16-3fde715cf1f8"/>
    <linearGradient id="92fe4283-c744-45ba-a54d-67fbebcaea0a" x1="-8246.37587" y1="-7612.02908" x2="-8178.91265" y2="-7482.59382" gradientTransform="matrix(0.62279, -0.78239, 0.78239, 0.62279, 11375.33613, -1300.37405)" xlink:href="#92086b52-6aa9-48d4-8bdf-53f065036ef9"/>
  </defs>
  <title>helioworkstation_icon_2</title>
  <g style="isolation: isolate">
    <g id="d2c5c0e2-01a0-451c-8e53-9027081d3876" data-name="star">
      <polygon points="498.735 303.776 518.97 180.951 431.74 0 498.735 303.776" fill="url(#20794d0d-ea67-4249-b501-c4565899937f)"/>
      <polygon points="498.735 303.776 518.97 180.951 496.926 281.292 431.74 0 498.735 303.776" fill="url(#78d4b846-a400-4d27-be3a-c602136a7eec)"/>
      <polygon points="364.745 303.776 344.51 180.951 431.74 0 364.745 303.776" fill="url(#d2a86d23-2a45-4bf7-9bf1-c08bb4dad9fc)"/>
      <polygon points="364.745 303.776 422.109 28.073 344.51 180.951 431.74 0 364.745 303.776" fill="#d54136" style="mix-blend-mode: multiply"/>
      <polygon points="498.735 303.776 431.74 0 364.745 303.776 431.74 119.665 498.735 303.776" fill="url(#a1eabef9-a24d-43d0-b9ef-2a378cba8934)"/>
      <polygon points="498.735 303.776 431.74 100.831 364.745 303.776 431.74 119.665 498.735 303.776" fill="#d54136" style="mix-blend-mode: multiply"/>
      <polygon points="340.571 370.211 431.74 119.665 498.735 303.776 431.74 326.302 431.74 442.919 340.571 370.211" fill="url(#f0c1ac92-a423-4c25-8c16-3ea6dd4f30db)"/>
      <polygon points="431.74 442.919 431.74 119.665 340.571 370.211 431.74 442.919" fill="url(#6fa3b7bf-4329-409b-adae-b92e17fc42bc)"/>
      <polygon points="431.74 119.665 431.74 326.302 498.735 303.776 435.764 321.281 431.74 119.665" fill="#fff" opacity="0.29" style="mix-blend-mode: overlay"/>
      <polygon points="431.74 119.665 431.74 326.302 428.501 134.27 364.745 303.776 431.74 119.665" fill="#ea7300" style="mix-blend-mode: multiply"/>
      <polygon points="582.291 408.521 690.928 347.745 777.987 166.712 582.291 408.521" fill="url(#85908edc-81df-4aca-b0f7-e33563d09d6a)"/>
      <polygon points="582.291 408.521 690.928 347.745 598.74 393.085 777.987 166.712 582.291 408.521" fill="url(#b3f12753-38cc-4404-8557-4f08f76904b2)"/>
      <polygon points="498.735 303.776 582.133 211.363 777.987 166.712 498.735 303.776" fill="url(#d13b9448-0429-40aa-8ecf-8184e7ef414f)"/>
      <polygon points="498.735 303.776 750.035 176.689 582.133 211.363 777.987 166.712 498.735 303.776" fill="#d54136" style="mix-blend-mode: multiply"/>
      <polygon points="582.291 408.521 777.987 166.712 498.735 303.776 684.44 241.335 582.291 408.521" fill="url(#beddd848-eac2-48fb-9774-5104baf103e2)"/>
      <polygon points="582.291 408.521 699.163 229.591 498.735 303.776 684.44 241.335 582.291 408.521" fill="#d54136" style="mix-blend-mode: multiply"/>
      <polygon points="431.725 326.307 684.44 241.335 582.291 408.521 522.904 370.196 431.74 442.919 431.725 326.307" fill="url(#7667ab83-3ce2-42da-a1f0-416e9ab6037e)"/>
      <polygon points="431.74 442.919 684.44 241.335 431.725 326.307 431.74 442.919" fill="url(#776e1049-0c23-4d44-894e-e71f08d88916)"/>
      <polygon points="684.44 241.335 522.904 370.196 582.291 408.521 529.339 370.21 684.44 241.335" fill="#fff" opacity="0.29" style="mix-blend-mode: overlay"/>
      <polygon points="684.44 241.335 522.904 370.196 671.002 247.911 498.735 303.776 684.44 241.335" fill="#ea7300" style="mix-blend-mode: multiply"/>
      <polygon points="552.515 539.16 667.773 586.184 863.583 541.348 552.515 539.16" fill="url(#f8476325-3f62-4e29-905c-01d5b89d6178)"/>
      <polygon points="552.515 539.16 667.773 586.184 574.839 542.393 863.583 541.348 552.515 539.16" fill="url(#c51f6466-d344-49f2-9868-bb47157d41a0)"/>
      <polygon points="582.291 408.521 706.543 416.087 863.583 541.348 582.291 408.521" fill="url(#67914a5a-accf-470e-80f8-adc307d465de)"/>
      <polygon points="582.291 408.521 838.353 525.719 706.543 416.087 863.583 541.348 582.291 408.521" fill="#d54136" style="mix-blend-mode: multiply"/>
      <polygon points="552.515 539.16 863.583 541.348 582.291 408.521 746.911 514.755 552.515 539.16" fill="url(#e8b58b93-5ba2-45e4-b866-a271afe78c82)"/>
      <polygon points="552.515 539.16 765.274 518.941 582.291 408.521 746.911 514.755 552.515 539.16" fill="#d54136" style="mix-blend-mode: multiply"/>
      <polygon points="522.89 370.187 746.911 514.755 552.515 539.16 545.44 468.834 431.74 442.919 522.89 370.187" fill="url(#c218895e-3fc9-4b03-aca3-f357ab91999b)"/>
      <polygon points="431.74 442.919 746.911 514.755 522.89 370.188 431.74 442.919" fill="url(#46b1da0f-e69a-4325-a39e-aebe51bb71c5)"/>
      <polygon points="746.911 514.755 545.44 468.834 552.515 539.16 549.442 473.874 746.911 514.755" fill="#fff" opacity="0.29" style="mix-blend-mode: overlay"/>
      <polygon points="746.911 514.755 545.44 468.834 733.39 508.351 582.291 408.521 746.911 514.755" fill="#ea7300" style="mix-blend-mode: multiply"/>
      <polygon points="431.821 597.35 466.935 716.776 624.094 841.889 431.821 597.35" fill="url(#cebd1e82-143b-4a69-8192-565a702d85f3)"/>
      <polygon points="431.821 597.35 466.935 716.776 443.215 616.818 624.094 841.889 431.821 597.35" fill="url(#100a6fc8-6cfa-4251-8475-206de2037971)"/>
      <polygon points="552.515 539.16 624.084 641.01 624.094 841.889 552.515 539.16" fill="url(#e0a1af11-9f64-4cae-9f32-2bb60babf732)"/>
      <polygon points="552.515 539.16 620.579 812.418 624.084 641.01 624.094 841.889 552.515 539.16" fill="#d54136" style="mix-blend-mode: multiply"/>
      <polygon points="431.821 597.35 624.094 841.889 552.515 539.16 572.125 734.098 431.821 597.35" fill="url(#fb7451a9-0c23-488e-b81a-8a6f64b49803)"/>
      <polygon points="431.821 597.35 580.305 751.062 552.515 539.16 572.125 734.098 431.821 597.35" fill="#d54136" style="mix-blend-mode: multiply"/>
      <polygon points="545.439 468.819 572.125 734.098 431.821 597.35 482.385 547.964 431.74 442.919 545.439 468.819" fill="url(#d3617fb6-6b68-46f4-9feb-e6209f30e605)"/>
      <polygon points="431.74 442.919 572.125 734.098 545.439 468.819 431.74 442.919" fill="url(#42835bbc-df4e-48a2-8087-30f2b49d6a6e)"/>
      <polygon points="572.125 734.098 482.385 547.964 431.821 597.35 480.942 554.235 572.125 734.098" fill="#fff" opacity="0.29" style="mix-blend-mode: overlay"/>
      <polygon points="572.125 734.098 482.385 547.964 568.7 719.535 552.515 539.16 572.125 734.098" fill="#ea7300" style="mix-blend-mode: multiply"/>
      <polygon points="311.066 539.286 239.603 641.211 239.804 842.09 311.066 539.286" fill="url(#cdc02b84-3ebe-47b2-b1ed-13e517c65557)"/>
      <polygon points="311.066 539.286 239.603 641.211 302.952 560.334 239.804 842.09 311.066 539.286" fill="url(#f0e1ea79-f72a-400d-b67a-43f36d6ee892)"/>
      <polygon points="431.821 597.35 396.832 716.813 239.804 842.09 431.821 597.35" fill="url(#659e3981-a204-457e-9339-0f64846dc1bf)"/>
      <polygon points="431.821 597.35 260.649 820.963 396.832 716.813 239.804 842.09 431.821 597.35" fill="#d54136" style="mix-blend-mode: multiply"/>
      <polygon points="311.066 539.286 239.804 842.09 431.821 597.35 291.66 734.245 311.066 539.286" fill="url(#336c6fa0-5d17-4bbe-9afb-811d7e8a286f)"/>
      <polygon points="311.066 539.286 283.498 751.218 431.821 597.35 291.66 734.245 311.066 539.286" fill="#d54136" style="mix-blend-mode: multiply"/>
      <polygon points="482.396 547.953 291.66 734.245 311.066 539.286 381.205 548.017 431.74 442.919 482.396 547.953" fill="url(#1df98ef3-eaf9-442c-8284-ecc1572859b7)"/>
      <polygon points="431.74 442.919 291.66 734.245 482.396 547.953 431.74 442.919" fill="url(#d56c31ab-e8b2-45d4-9e10-82f2b66ba143)"/>
      <polygon points="291.66 734.245 381.205 548.017 311.066 539.286 375.402 550.799 291.66 734.245" fill="#fff" opacity="0.29" style="mix-blend-mode: overlay"/>
      <polygon points="291.66 734.245 381.205 548.017 300.908 722.485 431.821 597.35 291.66 734.245" fill="#ea7300" style="mix-blend-mode: multiply"/>
      <polygon points="281.153 408.679 156.909 416.375 0 541.8 281.153 408.679" fill="url(#480a6be8-e0a1-4135-9883-2a0302c20524)"/>
      <polygon points="281.153 408.679 156.909 416.375 259.64 415.461 0 541.8 281.153 408.679" fill="url(#19fd52a1-43aa-41c0-beff-7294c8690538)"/>
      <polygon points="311.066 539.286 195.858 586.432 0 541.8 311.066 539.286" fill="url(#2fac400d-5980-42d4-a7b0-bcc4eb208841)"/>
      <polygon points="311.066 539.286 29.515 544.922 195.858 586.432 0 541.8 311.066 539.286" fill="#d54136" style="mix-blend-mode: multiply"/>
      <polygon points="281.153 408.679 0 541.8 311.066 539.286 116.645 515.085 281.153 408.679" fill="url(#571809b7-1a37-4113-9cd2-e2a4e94f3f14)"/>
      <polygon points="281.153 408.679 98.286 519.29 311.066 539.286 116.645 515.085 281.153 408.679" fill="#d54136" style="mix-blend-mode: multiply"/>
      <polygon points="381.221 548.019 116.645 515.085 281.153 408.679 318.067 468.953 431.74 442.919 381.221 548.019" fill="url(#735b9bf0-8540-4569-b020-1407477dd313)"/>
      <polygon points="431.74 442.919 116.645 515.085 381.22 548.019 431.74 442.919" fill="url(#63a7d2d4-b2fa-4539-b2ac-8f25305183cf)"/>
      <polygon points="116.645 515.085 318.067 468.953 281.153 408.679 312.274 466.152 116.645 515.085" fill="#fff" opacity="0.29" style="mix-blend-mode: overlay"/>
      <polygon points="116.645 515.085 318.067 468.953 131.605 514.982 311.066 539.286 116.645 515.085" fill="#ea7300" style="mix-blend-mode: multiply"/>
      <polygon points="364.745 303.776 281.104 211.52 85.204 167.074 364.745 303.776" fill="url(#2195066f-c52d-4ba2-8bfb-8d908ce2f7b4)"/>
      <polygon points="364.745 303.776 281.104 211.52 345.882 291.259 85.204 167.074 364.745 303.776" fill="url(#09551d1d-0a05-4bcf-97a5-e3195bc04a90)"/>
      <polygon points="281.153 408.679 172.453 348.016 85.204 167.074 281.153 408.679" fill="url(#e12c1b34-55ec-4190-abb6-6f6d3f380cee)"/>
      <polygon points="281.153 408.679 101.17 192.093 172.453 348.016 85.204 167.074 281.153 408.679" fill="#d54136" style="mix-blend-mode: multiply"/>
      <polygon points="364.745 303.776 85.204 167.074 281.153 408.679 178.829 241.6 364.745 303.776" fill="url(#8d3e3517-e584-4cf6-a7ba-d0c4a7a01b77)"/>
      <polygon points="364.745 303.776 164.094 229.871 281.153 408.679 178.829 241.6 364.745 303.776" fill="#d54136" style="mix-blend-mode: multiply"/>
      <polygon points="318.075 468.967 178.829 241.6 364.745 303.776 340.5 370.292 431.74 442.919 318.075 468.967" fill="url(#0c8695e2-4a39-4fb1-92be-839d237630a0)"/>
      <polygon points="431.74 442.919 178.829 241.6 318.075 468.967 431.74 442.919" fill="url(#5ddd95ff-b659-4ffc-baf0-e09aab491849)"/>
      <polygon points="178.829 241.6 340.5 370.292 364.745 303.776 339.077 364.016 178.829 241.6" fill="#fff" opacity="0.29" style="mix-blend-mode: overlay"/>
      <polygon points="178.829 241.6 340.5 370.292 188.239 253.231 281.153 408.679 178.829 241.6" fill="#ea7300" style="mix-blend-mode: multiply"/>
      <polygon points="364.745 303.776 431.74 326.302 431.74 442.919 340.571 370.211 364.745 303.776" fill="url(#49aeb285-2c31-475e-ad16-3fde715cf1f8)"/>
      <polygon points="498.735 303.776 522.904 370.196 431.74 442.919 431.725 326.307 498.735 303.776" fill="url(#92086b52-6aa9-48d4-8bdf-53f065036ef9)"/>
      <polygon points="582.291 408.521 545.44 468.834 431.74 442.919 522.89 370.187 582.291 408.521" fill="url(#ffb86a58-72b0-437e-95b3-4b9b4387f440)"/>
      <polygon points="552.515 539.16 482.385 547.964 431.74 442.919 545.439 468.819 552.515 539.16" fill="url(#7a27f012-6040-4d32-be31-039d2065bb53)"/>
      <polygon points="431.821 597.35 381.205 548.017 431.74 442.919 482.396 547.953 431.821 597.35" fill="url(#fb70e4aa-a9a2-464e-8576-d9bbfa39aaa0)"/>
      <polygon points="311.066 539.286 318.067 468.953 431.74 442.919 381.221 548.019 311.066 539.286" fill="url(#f3d65946-d572-4207-b5f1-99f6dbeef8c5)"/>
      <polygon points="281.153 408.679 340.5 370.292 431.74 442.919 318.075 468.967 281.153 408.679" fill="url(#92fe4283-c744-45ba-a54d-67fbebcaea0a)"/>
      <polygon points="436.444 433.05 522.904 370.196 431.74 442.919 431.725 326.307 436.444 433.05" fill="#fff" opacity="0.17" style="mix-blend-mode: overlay"/>
      <polygon points="421.073 440.526 340.577 370.196 431.74 442.919 318.048 468.848 421.073 440.526" fill="#fff" opacity="0.17" style="mix-blend-mode: overlay"/>
      <polygon points="440.31 449.707 482.275 548.017 431.74 442.919 545.412 468.938 440.31 449.707" fill="#fff" opacity="0.17" style="mix-blend-mode: overlay"/>
    </g>
  </g>
</svg>
