<svg xmlns="http://www.w3.org/2000/svg" viewBox="2 -8 72 72">
  <defs/>
  <path fill="#100E15" d="M10 38.1002c2.7613-1.8516 4.8236-3.2533 6.1518-4.2224 1.3282-.9517 2.7264-2.1458 4.1595-3.5647 1.433-1.419 2.639-3.0284 3.6176-4.8107.769-1.3152 1.4331-2.838 1.975-4.5685.5417-1.7131.8213-3.3744.8738-4.9491 0-1.4709-.1923-2.8726-.5943-4.1877-.3844-1.3325-1.0486-2.4227-1.9923-3.3052-.9437-.8653-2.1671-1.2979-3.6876-1.2979-1.468 0-2.8487.2942-4.142.8653-1.2758.5883-2.1846 1.5228-2.6914 2.838 0 .121-.0699.2768-.1748.5018.035.2768.1748.4845.437.6402.2621.1558.4893.225.699.225.1049 0 .402-.052.8564-.1558.4719-.1038.8564-.173 1.171-.173.9262 0 1.7476.3288 2.4991.969.734.6403 1.101 1.419 1.101 2.3362 0 .6576-.1922 1.2805-.5592 1.8516-.367.571-.8739 1.0383-1.5205 1.367-.6466.3462-1.3632.5019-2.1322.5019-1.398 0-2.5865-.4153-3.5652-1.2632-.9612-.8653-1.4506-1.9555-1.4506-3.3225 0-1.7478.5418-3.2533 1.6079-4.5339 1.0835-1.2805 2.4467-2.2323 4.1245-2.8725C18.4238 6.3115 20.1015 6 21.8143 6c1.87 0 3.6526.4672 5.3129 1.419 1.6778.9344 2.9885 2.2323 3.9672 3.8416.9787 1.6267 1.4855 3.3571 1.4855 5.226 0 3.3225-1.1185 6.4028-3.3555 9.258-2.237 2.8553-4.9983 5.3299-8.3014 7.441C18.7209 34.622 15.1556 36.56 10.2447 39L10 38.1002zm25.4386-26.7704c0-.623.2272-1.142.6816-1.5574.4369-.4326.9787-.6403 1.6253-.6403.5593 0 1.0836.2423 1.5554.7095.4719.45.6991.9864.6991 1.5748 0 .623-.2447 1.1594-.699 1.592-.4894.4153-1.0312.623-1.6429.623-.6466 0-1.171-.2077-1.5904-.675-.4194-.4498-.6291-.9863-.6291-1.6266zm0 9.0677c0-.623.2272-1.1594.6466-1.5747.437-.4327.9787-.6403 1.6603-.6403.5593 0 1.066.225 1.5554.6922.4544.4672.6991.969.6991 1.5228 0 .6749-.2272 1.2113-.6641 1.644-.4544.4325-.9787.6575-1.5904.6575-.6816 0-1.2234-.225-1.6603-.6403-.4194-.4153-.6466-.969-.6466-1.6612zm16.256-7.0263h-3.0368l-.7817 3.9979h3.024l.7945-3.9979zm5.0102-1.8452l-.1922 1.0636c-.0427.2648-.1495.4613-.3203.5894-.1709.1281-.4357.1922-.7945.1922h-1.6402l-.7944 3.9979h2.1783c.2648 0 .455.079.5702.237.1154.158.1431.425.0833.801l-.1153.8072h-2.9856l-1.0507 5.369h-1.1276a.7258.7258 0 01-.3396-.0834.7197.7197 0 01-.2627-.2306c-.0683-.0982-.1174-.2114-.1473-.3396-.03-.1281-.0278-.269.0064-.4228l.8585-4.2926h-3.024l-.8586 4.4207c-.0683.3417-.2093.5852-.4228.7304-.2136.1452-.457.2178-.7304.2178h-1.102l1.0507-5.369h-1.7683c-.2562 0-.4442-.0768-.5638-.2306-.1196-.1537-.1495-.4228-.0897-.8072l.1154-.8073h2.5755l.7817-3.9979H43.686l.1794-1.0507c.0427-.2734.1495-.4741.3204-.6023.1708-.1281.4356-.1922.7944-.1922h1.8836l.8842-4.4592c.0512-.2733.1794-.489.3844-.647.205-.158.4442-.2371.7176-.2371h1.1276l-1.0507 5.3433h3.0368l1.038-5.3433h1.1147c.2734 0 .487.0854.6407.2563.1538.1708.205.393.1538.6663l-.8842 4.4207h2.6781zm11.4916 11.5858v1.6657H58.0992v-1.6657h10.0972z"/>
</svg>
